<mxfile host="Electron" agent="Mozilla/5.0 (Macintosh; Intel Mac OS X 10_15_7) AppleWebKit/537.36 (KHTML, like Gecko) draw.io/25.0.2 Chrome/128.0.6613.186 Electron/32.2.5 Safari/537.36" version="25.0.2">
  <diagram name="Page-1" id="-H_mtQnk-PTXWXPvYvuk">
    <mxGraphModel dx="2074" dy="965" grid="1" gridSize="10" guides="1" tooltips="1" connect="1" arrows="1" fold="1" page="1" pageScale="1" pageWidth="1169" pageHeight="827" math="0" shadow="0">
      <root>
        <mxCell id="0" />
        <mxCell id="1" parent="0" />
        <mxCell id="47UurQtOCFy3TFF9FcCs-89" value="" style="rounded=1;whiteSpace=wrap;html=1;fillColor=none;arcSize=4;strokeWidth=2;" vertex="1" parent="1">
          <mxGeometry x="2480" y="40" width="1760" height="960" as="geometry" />
        </mxCell>
        <mxCell id="47UurQtOCFy3TFF9FcCs-29" value="" style="rounded=1;whiteSpace=wrap;html=1;fillColor=none;arcSize=4;strokeWidth=2;" vertex="1" parent="1">
          <mxGeometry x="620" y="40" width="850" height="640" as="geometry" />
        </mxCell>
        <mxCell id="47UurQtOCFy3TFF9FcCs-5" value="" style="rounded=1;whiteSpace=wrap;html=1;fillColor=none;arcSize=4;strokeWidth=2;" vertex="1" parent="1">
          <mxGeometry x="50" y="40" width="510" height="640" as="geometry" />
        </mxCell>
        <mxCell id="47UurQtOCFy3TFF9FcCs-8" style="edgeStyle=orthogonalEdgeStyle;rounded=0;orthogonalLoop=1;jettySize=auto;html=1;exitX=0.5;exitY=1;exitDx=0;exitDy=0;entryX=0;entryY=0.5;entryDx=0;entryDy=0;" edge="1" parent="1" source="47UurQtOCFy3TFF9FcCs-1" target="47UurQtOCFy3TFF9FcCs-6">
          <mxGeometry relative="1" as="geometry" />
        </mxCell>
        <mxCell id="47UurQtOCFy3TFF9FcCs-27" style="edgeStyle=orthogonalEdgeStyle;rounded=0;orthogonalLoop=1;jettySize=auto;html=1;exitX=0.5;exitY=0;exitDx=0;exitDy=0;entryX=0;entryY=0.5;entryDx=0;entryDy=0;" edge="1" parent="1" source="47UurQtOCFy3TFF9FcCs-1" target="47UurQtOCFy3TFF9FcCs-25">
          <mxGeometry relative="1" as="geometry" />
        </mxCell>
        <mxCell id="47UurQtOCFy3TFF9FcCs-1" value="&lt;span style=&quot;caret-color: rgba(0, 0, 0, 0.85); color: rgba(0, 0, 0, 0.85); font-family: Menlo, &amp;quot;Ubuntu Mono&amp;quot;, consolas, source-code-pro, monospace; font-size: 14.4px; white-space-collapse: break-spaces; background-color: rgb(245, 245, 245);&quot;&gt;configSrv&lt;/span&gt;" style="rounded=1;whiteSpace=wrap;html=1;" vertex="1" parent="1">
          <mxGeometry x="80" y="340" width="120" height="60" as="geometry" />
        </mxCell>
        <mxCell id="47UurQtOCFy3TFF9FcCs-28" style="edgeStyle=orthogonalEdgeStyle;rounded=0;orthogonalLoop=1;jettySize=auto;html=1;exitX=0.5;exitY=1;exitDx=0;exitDy=0;startArrow=classic;startFill=1;" edge="1" parent="1" source="47UurQtOCFy3TFF9FcCs-2" target="47UurQtOCFy3TFF9FcCs-25">
          <mxGeometry relative="1" as="geometry" />
        </mxCell>
        <mxCell id="47UurQtOCFy3TFF9FcCs-2" value="pymongo-api" style="rounded=1;whiteSpace=wrap;html=1;" vertex="1" parent="1">
          <mxGeometry x="280" y="70" width="120" height="60" as="geometry" />
        </mxCell>
        <mxCell id="47UurQtOCFy3TFF9FcCs-7" value="" style="group" vertex="1" connectable="0" parent="1">
          <mxGeometry x="220" y="440" width="260" height="180" as="geometry" />
        </mxCell>
        <mxCell id="47UurQtOCFy3TFF9FcCs-3" value="&lt;span style=&quot;caret-color: rgba(0, 0, 0, 0.85); color: rgba(0, 0, 0, 0.85); font-family: Menlo, &amp;quot;Ubuntu Mono&amp;quot;, consolas, source-code-pro, monospace; font-size: 14.4px; white-space-collapse: break-spaces; background-color: rgb(245, 245, 245);&quot;&gt;shard1&lt;/span&gt;" style="shape=cylinder3;whiteSpace=wrap;html=1;boundedLbl=1;backgroundOutline=1;size=15;" vertex="1" parent="47UurQtOCFy3TFF9FcCs-7">
          <mxGeometry x="40" y="50" width="60" height="80" as="geometry" />
        </mxCell>
        <mxCell id="47UurQtOCFy3TFF9FcCs-4" value="&lt;span style=&quot;caret-color: rgba(0, 0, 0, 0.85); color: rgba(0, 0, 0, 0.85); font-family: Menlo, &amp;quot;Ubuntu Mono&amp;quot;, consolas, source-code-pro, monospace; font-size: 14.4px; white-space-collapse: break-spaces; background-color: rgb(245, 245, 245);&quot;&gt;shard2&lt;/span&gt;" style="shape=cylinder3;whiteSpace=wrap;html=1;boundedLbl=1;backgroundOutline=1;size=15;" vertex="1" parent="47UurQtOCFy3TFF9FcCs-7">
          <mxGeometry x="180" y="50" width="60" height="80" as="geometry" />
        </mxCell>
        <mxCell id="47UurQtOCFy3TFF9FcCs-6" value="" style="rounded=1;whiteSpace=wrap;html=1;fillColor=none;strokeColor=default;" vertex="1" parent="47UurQtOCFy3TFF9FcCs-7">
          <mxGeometry width="260" height="180" as="geometry" />
        </mxCell>
        <mxCell id="47UurQtOCFy3TFF9FcCs-13" value="Схема 1" style="text;html=1;align=center;verticalAlign=middle;whiteSpace=wrap;rounded=0;fontSize=16;fontStyle=1" vertex="1" parent="1">
          <mxGeometry x="80" y="64" width="80" height="30" as="geometry" />
        </mxCell>
        <mxCell id="47UurQtOCFy3TFF9FcCs-25" value="router" style="rounded=1;whiteSpace=wrap;html=1;" vertex="1" parent="1">
          <mxGeometry x="280" y="220" width="120" height="60" as="geometry" />
        </mxCell>
        <mxCell id="47UurQtOCFy3TFF9FcCs-26" style="edgeStyle=orthogonalEdgeStyle;rounded=0;orthogonalLoop=1;jettySize=auto;html=1;exitX=0.5;exitY=1;exitDx=0;exitDy=0;entryX=0.465;entryY=0.011;entryDx=0;entryDy=0;entryPerimeter=0;" edge="1" parent="1" source="47UurQtOCFy3TFF9FcCs-25" target="47UurQtOCFy3TFF9FcCs-6">
          <mxGeometry relative="1" as="geometry" />
        </mxCell>
        <mxCell id="47UurQtOCFy3TFF9FcCs-31" style="edgeStyle=orthogonalEdgeStyle;rounded=0;orthogonalLoop=1;jettySize=auto;html=1;exitX=0.5;exitY=0;exitDx=0;exitDy=0;entryX=0;entryY=0.5;entryDx=0;entryDy=0;" edge="1" parent="1" source="47UurQtOCFy3TFF9FcCs-32" target="47UurQtOCFy3TFF9FcCs-40">
          <mxGeometry relative="1" as="geometry" />
        </mxCell>
        <mxCell id="47UurQtOCFy3TFF9FcCs-59" style="edgeStyle=orthogonalEdgeStyle;rounded=0;orthogonalLoop=1;jettySize=auto;html=1;exitX=0.5;exitY=1;exitDx=0;exitDy=0;entryX=0;entryY=0.5;entryDx=0;entryDy=0;" edge="1" parent="1" source="47UurQtOCFy3TFF9FcCs-32" target="47UurQtOCFy3TFF9FcCs-56">
          <mxGeometry relative="1" as="geometry" />
        </mxCell>
        <mxCell id="47UurQtOCFy3TFF9FcCs-32" value="&lt;span style=&quot;caret-color: rgba(0, 0, 0, 0.85); color: rgba(0, 0, 0, 0.85); font-family: Menlo, &amp;quot;Ubuntu Mono&amp;quot;, consolas, source-code-pro, monospace; font-size: 14.4px; white-space-collapse: break-spaces; background-color: rgb(245, 245, 245);&quot;&gt;configSrv&lt;/span&gt;" style="rounded=1;whiteSpace=wrap;html=1;" vertex="1" parent="1">
          <mxGeometry x="670" y="310" width="120" height="60" as="geometry" />
        </mxCell>
        <mxCell id="47UurQtOCFy3TFF9FcCs-33" style="edgeStyle=orthogonalEdgeStyle;rounded=0;orthogonalLoop=1;jettySize=auto;html=1;exitX=0.5;exitY=1;exitDx=0;exitDy=0;startArrow=classic;startFill=1;" edge="1" parent="1" source="47UurQtOCFy3TFF9FcCs-34" target="47UurQtOCFy3TFF9FcCs-40">
          <mxGeometry relative="1" as="geometry" />
        </mxCell>
        <mxCell id="47UurQtOCFy3TFF9FcCs-34" value="pymongo-api" style="rounded=1;whiteSpace=wrap;html=1;" vertex="1" parent="1">
          <mxGeometry x="1060" y="64" width="120" height="60" as="geometry" />
        </mxCell>
        <mxCell id="47UurQtOCFy3TFF9FcCs-39" value="Схема 2" style="text;html=1;align=center;verticalAlign=middle;whiteSpace=wrap;rounded=0;fontStyle=1;fontSize=16;" vertex="1" parent="1">
          <mxGeometry x="650" y="64" width="80" height="30" as="geometry" />
        </mxCell>
        <mxCell id="47UurQtOCFy3TFF9FcCs-40" value="router" style="rounded=1;whiteSpace=wrap;html=1;" vertex="1" parent="1">
          <mxGeometry x="1060" y="190" width="120" height="60" as="geometry" />
        </mxCell>
        <mxCell id="47UurQtOCFy3TFF9FcCs-57" value="" style="group" vertex="1" connectable="0" parent="1">
          <mxGeometry x="840" y="370" width="590" height="270" as="geometry" />
        </mxCell>
        <mxCell id="47UurQtOCFy3TFF9FcCs-56" value="" style="rounded=0;whiteSpace=wrap;html=1;fillColor=none;dashed=1;strokeWidth=2;" vertex="1" parent="47UurQtOCFy3TFF9FcCs-57">
          <mxGeometry width="590" height="270" as="geometry" />
        </mxCell>
        <mxCell id="47UurQtOCFy3TFF9FcCs-47" value="" style="group" vertex="1" connectable="0" parent="47UurQtOCFy3TFF9FcCs-57">
          <mxGeometry x="20" y="20" width="260" height="230" as="geometry" />
        </mxCell>
        <mxCell id="47UurQtOCFy3TFF9FcCs-38" value="" style="rounded=1;whiteSpace=wrap;html=1;fillColor=none;strokeColor=default;" vertex="1" parent="47UurQtOCFy3TFF9FcCs-47">
          <mxGeometry width="260" height="230.00000000000003" as="geometry" />
        </mxCell>
        <mxCell id="47UurQtOCFy3TFF9FcCs-36" value="&lt;span style=&quot;caret-color: rgba(0, 0, 0, 0.85); color: rgba(0, 0, 0, 0.85); font-family: Menlo, &amp;quot;Ubuntu Mono&amp;quot;, consolas, source-code-pro, monospace; font-size: 14.4px; white-space-collapse: break-spaces; background-color: rgb(245, 245, 245);&quot;&gt;shard1-1&lt;/span&gt;" style="shape=cylinder3;whiteSpace=wrap;html=1;boundedLbl=1;backgroundOutline=1;size=15;" vertex="1" parent="47UurQtOCFy3TFF9FcCs-47">
          <mxGeometry x="80" y="10" width="80" height="90" as="geometry" />
        </mxCell>
        <mxCell id="47UurQtOCFy3TFF9FcCs-42" value="&lt;span style=&quot;caret-color: rgba(0, 0, 0, 0.85); color: rgba(0, 0, 0, 0.85); font-family: Menlo, &amp;quot;Ubuntu Mono&amp;quot;, consolas, source-code-pro, monospace; font-size: 14.4px; white-space-collapse: break-spaces; background-color: rgb(245, 245, 245);&quot;&gt;shard1-2&lt;/span&gt;" style="shape=cylinder3;whiteSpace=wrap;html=1;boundedLbl=1;backgroundOutline=1;size=15;" vertex="1" parent="47UurQtOCFy3TFF9FcCs-47">
          <mxGeometry x="170" y="110" width="80" height="90" as="geometry" />
        </mxCell>
        <mxCell id="47UurQtOCFy3TFF9FcCs-43" value="&lt;span style=&quot;caret-color: rgba(0, 0, 0, 0.85); color: rgba(0, 0, 0, 0.85); font-family: Menlo, &amp;quot;Ubuntu Mono&amp;quot;, consolas, source-code-pro, monospace; font-size: 14.4px; white-space-collapse: break-spaces; background-color: rgb(245, 245, 245);&quot;&gt;shard1-3&lt;/span&gt;" style="shape=cylinder3;whiteSpace=wrap;html=1;boundedLbl=1;backgroundOutline=1;size=15;" vertex="1" parent="47UurQtOCFy3TFF9FcCs-47">
          <mxGeometry x="10" y="110" width="80" height="90" as="geometry" />
        </mxCell>
        <mxCell id="47UurQtOCFy3TFF9FcCs-44" style="edgeStyle=orthogonalEdgeStyle;rounded=0;orthogonalLoop=1;jettySize=auto;html=1;exitX=1;exitY=0.5;exitDx=0;exitDy=0;exitPerimeter=0;entryX=0;entryY=0.5;entryDx=0;entryDy=0;entryPerimeter=0;startArrow=classic;startFill=1;" edge="1" parent="47UurQtOCFy3TFF9FcCs-47" source="47UurQtOCFy3TFF9FcCs-43" target="47UurQtOCFy3TFF9FcCs-42">
          <mxGeometry relative="1" as="geometry" />
        </mxCell>
        <mxCell id="47UurQtOCFy3TFF9FcCs-45" style="edgeStyle=orthogonalEdgeStyle;rounded=0;orthogonalLoop=1;jettySize=auto;html=1;exitX=0.5;exitY=0;exitDx=0;exitDy=0;exitPerimeter=0;entryX=0;entryY=0.5;entryDx=0;entryDy=0;entryPerimeter=0;startArrow=classic;startFill=1;" edge="1" parent="47UurQtOCFy3TFF9FcCs-47" source="47UurQtOCFy3TFF9FcCs-43" target="47UurQtOCFy3TFF9FcCs-36">
          <mxGeometry relative="1" as="geometry" />
        </mxCell>
        <mxCell id="47UurQtOCFy3TFF9FcCs-46" style="edgeStyle=orthogonalEdgeStyle;rounded=0;orthogonalLoop=1;jettySize=auto;html=1;exitX=1;exitY=0.5;exitDx=0;exitDy=0;exitPerimeter=0;entryX=0.5;entryY=0;entryDx=0;entryDy=0;entryPerimeter=0;startArrow=classic;startFill=1;" edge="1" parent="47UurQtOCFy3TFF9FcCs-47" source="47UurQtOCFy3TFF9FcCs-36" target="47UurQtOCFy3TFF9FcCs-42">
          <mxGeometry relative="1" as="geometry" />
        </mxCell>
        <mxCell id="47UurQtOCFy3TFF9FcCs-48" value="" style="group" vertex="1" connectable="0" parent="47UurQtOCFy3TFF9FcCs-57">
          <mxGeometry x="310" y="20" width="260" height="230" as="geometry" />
        </mxCell>
        <mxCell id="47UurQtOCFy3TFF9FcCs-49" value="" style="rounded=1;whiteSpace=wrap;html=1;fillColor=none;strokeColor=default;" vertex="1" parent="47UurQtOCFy3TFF9FcCs-48">
          <mxGeometry width="260" height="230.00000000000003" as="geometry" />
        </mxCell>
        <mxCell id="47UurQtOCFy3TFF9FcCs-50" value="&lt;span style=&quot;caret-color: rgba(0, 0, 0, 0.85); color: rgba(0, 0, 0, 0.85); font-family: Menlo, &amp;quot;Ubuntu Mono&amp;quot;, consolas, source-code-pro, monospace; font-size: 14.4px; white-space-collapse: break-spaces; background-color: rgb(245, 245, 245);&quot;&gt;shard2-1&lt;/span&gt;" style="shape=cylinder3;whiteSpace=wrap;html=1;boundedLbl=1;backgroundOutline=1;size=15;" vertex="1" parent="47UurQtOCFy3TFF9FcCs-48">
          <mxGeometry x="80" y="10" width="80" height="90" as="geometry" />
        </mxCell>
        <mxCell id="47UurQtOCFy3TFF9FcCs-51" value="&lt;span style=&quot;caret-color: rgba(0, 0, 0, 0.85); color: rgba(0, 0, 0, 0.85); font-family: Menlo, &amp;quot;Ubuntu Mono&amp;quot;, consolas, source-code-pro, monospace; font-size: 14.4px; white-space-collapse: break-spaces; background-color: rgb(245, 245, 245);&quot;&gt;shard2-2&lt;/span&gt;" style="shape=cylinder3;whiteSpace=wrap;html=1;boundedLbl=1;backgroundOutline=1;size=15;" vertex="1" parent="47UurQtOCFy3TFF9FcCs-48">
          <mxGeometry x="170" y="110" width="80" height="90" as="geometry" />
        </mxCell>
        <mxCell id="47UurQtOCFy3TFF9FcCs-52" value="&lt;span style=&quot;caret-color: rgba(0, 0, 0, 0.85); color: rgba(0, 0, 0, 0.85); font-family: Menlo, &amp;quot;Ubuntu Mono&amp;quot;, consolas, source-code-pro, monospace; font-size: 14.4px; white-space-collapse: break-spaces; background-color: rgb(245, 245, 245);&quot;&gt;shard2-3&lt;/span&gt;" style="shape=cylinder3;whiteSpace=wrap;html=1;boundedLbl=1;backgroundOutline=1;size=15;" vertex="1" parent="47UurQtOCFy3TFF9FcCs-48">
          <mxGeometry x="10" y="110" width="80" height="90" as="geometry" />
        </mxCell>
        <mxCell id="47UurQtOCFy3TFF9FcCs-53" style="edgeStyle=orthogonalEdgeStyle;rounded=0;orthogonalLoop=1;jettySize=auto;html=1;exitX=1;exitY=0.5;exitDx=0;exitDy=0;exitPerimeter=0;entryX=0;entryY=0.5;entryDx=0;entryDy=0;entryPerimeter=0;startArrow=classic;startFill=1;" edge="1" parent="47UurQtOCFy3TFF9FcCs-48" source="47UurQtOCFy3TFF9FcCs-52" target="47UurQtOCFy3TFF9FcCs-51">
          <mxGeometry relative="1" as="geometry" />
        </mxCell>
        <mxCell id="47UurQtOCFy3TFF9FcCs-54" style="edgeStyle=orthogonalEdgeStyle;rounded=0;orthogonalLoop=1;jettySize=auto;html=1;exitX=0.5;exitY=0;exitDx=0;exitDy=0;exitPerimeter=0;entryX=0;entryY=0.5;entryDx=0;entryDy=0;entryPerimeter=0;startArrow=classic;startFill=1;" edge="1" parent="47UurQtOCFy3TFF9FcCs-48" source="47UurQtOCFy3TFF9FcCs-52" target="47UurQtOCFy3TFF9FcCs-50">
          <mxGeometry relative="1" as="geometry" />
        </mxCell>
        <mxCell id="47UurQtOCFy3TFF9FcCs-55" style="edgeStyle=orthogonalEdgeStyle;rounded=0;orthogonalLoop=1;jettySize=auto;html=1;exitX=1;exitY=0.5;exitDx=0;exitDy=0;exitPerimeter=0;entryX=0.5;entryY=0;entryDx=0;entryDy=0;entryPerimeter=0;startArrow=classic;startFill=1;" edge="1" parent="47UurQtOCFy3TFF9FcCs-48" source="47UurQtOCFy3TFF9FcCs-50" target="47UurQtOCFy3TFF9FcCs-51">
          <mxGeometry relative="1" as="geometry" />
        </mxCell>
        <mxCell id="47UurQtOCFy3TFF9FcCs-58" style="edgeStyle=orthogonalEdgeStyle;rounded=0;orthogonalLoop=1;jettySize=auto;html=1;exitX=0.5;exitY=1;exitDx=0;exitDy=0;entryX=0.475;entryY=0.011;entryDx=0;entryDy=0;entryPerimeter=0;" edge="1" parent="1" source="47UurQtOCFy3TFF9FcCs-40" target="47UurQtOCFy3TFF9FcCs-56">
          <mxGeometry relative="1" as="geometry" />
        </mxCell>
        <mxCell id="47UurQtOCFy3TFF9FcCs-60" value="" style="rounded=1;whiteSpace=wrap;html=1;fillColor=none;arcSize=4;strokeWidth=2;" vertex="1" parent="1">
          <mxGeometry x="1540" y="40" width="850" height="640" as="geometry" />
        </mxCell>
        <mxCell id="47UurQtOCFy3TFF9FcCs-61" style="edgeStyle=orthogonalEdgeStyle;rounded=0;orthogonalLoop=1;jettySize=auto;html=1;exitX=0.5;exitY=0;exitDx=0;exitDy=0;entryX=0;entryY=0.5;entryDx=0;entryDy=0;" edge="1" parent="1" source="47UurQtOCFy3TFF9FcCs-63" target="47UurQtOCFy3TFF9FcCs-67">
          <mxGeometry relative="1" as="geometry" />
        </mxCell>
        <mxCell id="47UurQtOCFy3TFF9FcCs-62" style="edgeStyle=orthogonalEdgeStyle;rounded=0;orthogonalLoop=1;jettySize=auto;html=1;exitX=0.5;exitY=1;exitDx=0;exitDy=0;entryX=0;entryY=0.5;entryDx=0;entryDy=0;" edge="1" parent="1" source="47UurQtOCFy3TFF9FcCs-63" target="47UurQtOCFy3TFF9FcCs-69">
          <mxGeometry relative="1" as="geometry" />
        </mxCell>
        <mxCell id="47UurQtOCFy3TFF9FcCs-63" value="&lt;span style=&quot;caret-color: rgba(0, 0, 0, 0.85); color: rgba(0, 0, 0, 0.85); font-family: Menlo, &amp;quot;Ubuntu Mono&amp;quot;, consolas, source-code-pro, monospace; font-size: 14.4px; white-space-collapse: break-spaces; background-color: rgb(245, 245, 245);&quot;&gt;configSrv&lt;/span&gt;" style="rounded=1;whiteSpace=wrap;html=1;" vertex="1" parent="1">
          <mxGeometry x="1590" y="310" width="120" height="60" as="geometry" />
        </mxCell>
        <mxCell id="47UurQtOCFy3TFF9FcCs-64" style="edgeStyle=orthogonalEdgeStyle;rounded=0;orthogonalLoop=1;jettySize=auto;html=1;exitX=0.5;exitY=1;exitDx=0;exitDy=0;startArrow=classic;startFill=1;" edge="1" parent="1" source="47UurQtOCFy3TFF9FcCs-65" target="47UurQtOCFy3TFF9FcCs-67">
          <mxGeometry relative="1" as="geometry" />
        </mxCell>
        <mxCell id="47UurQtOCFy3TFF9FcCs-228" style="edgeStyle=orthogonalEdgeStyle;rounded=0;orthogonalLoop=1;jettySize=auto;html=1;exitX=0;exitY=0.5;exitDx=0;exitDy=0;" edge="1" parent="1" source="47UurQtOCFy3TFF9FcCs-65" target="47UurQtOCFy3TFF9FcCs-227">
          <mxGeometry relative="1" as="geometry" />
        </mxCell>
        <mxCell id="47UurQtOCFy3TFF9FcCs-65" value="pymongo-api" style="rounded=1;whiteSpace=wrap;html=1;" vertex="1" parent="1">
          <mxGeometry x="1980" y="64" width="120" height="60" as="geometry" />
        </mxCell>
        <mxCell id="47UurQtOCFy3TFF9FcCs-66" value="Схема 3" style="text;html=1;align=center;verticalAlign=middle;whiteSpace=wrap;rounded=0;fontSize=16;fontStyle=1" vertex="1" parent="1">
          <mxGeometry x="1570" y="64" width="70" height="30" as="geometry" />
        </mxCell>
        <mxCell id="47UurQtOCFy3TFF9FcCs-67" value="router" style="rounded=1;whiteSpace=wrap;html=1;" vertex="1" parent="1">
          <mxGeometry x="1980" y="190" width="120" height="60" as="geometry" />
        </mxCell>
        <mxCell id="47UurQtOCFy3TFF9FcCs-68" value="" style="group" vertex="1" connectable="0" parent="1">
          <mxGeometry x="1760" y="370" width="590" height="270" as="geometry" />
        </mxCell>
        <mxCell id="47UurQtOCFy3TFF9FcCs-69" value="" style="rounded=0;whiteSpace=wrap;html=1;fillColor=none;dashed=1;strokeWidth=2;" vertex="1" parent="47UurQtOCFy3TFF9FcCs-68">
          <mxGeometry width="590" height="270" as="geometry" />
        </mxCell>
        <mxCell id="47UurQtOCFy3TFF9FcCs-70" value="" style="group" vertex="1" connectable="0" parent="47UurQtOCFy3TFF9FcCs-68">
          <mxGeometry x="20" y="20" width="260" height="230" as="geometry" />
        </mxCell>
        <mxCell id="47UurQtOCFy3TFF9FcCs-71" value="" style="rounded=1;whiteSpace=wrap;html=1;fillColor=none;strokeColor=default;" vertex="1" parent="47UurQtOCFy3TFF9FcCs-70">
          <mxGeometry width="260" height="230.00000000000003" as="geometry" />
        </mxCell>
        <mxCell id="47UurQtOCFy3TFF9FcCs-72" value="&lt;span style=&quot;caret-color: rgba(0, 0, 0, 0.85); color: rgba(0, 0, 0, 0.85); font-family: Menlo, &amp;quot;Ubuntu Mono&amp;quot;, consolas, source-code-pro, monospace; font-size: 14.4px; white-space-collapse: break-spaces; background-color: rgb(245, 245, 245);&quot;&gt;shard1-1&lt;/span&gt;" style="shape=cylinder3;whiteSpace=wrap;html=1;boundedLbl=1;backgroundOutline=1;size=15;" vertex="1" parent="47UurQtOCFy3TFF9FcCs-70">
          <mxGeometry x="80" y="10" width="80" height="90" as="geometry" />
        </mxCell>
        <mxCell id="47UurQtOCFy3TFF9FcCs-73" value="&lt;span style=&quot;caret-color: rgba(0, 0, 0, 0.85); color: rgba(0, 0, 0, 0.85); font-family: Menlo, &amp;quot;Ubuntu Mono&amp;quot;, consolas, source-code-pro, monospace; font-size: 14.4px; white-space-collapse: break-spaces; background-color: rgb(245, 245, 245);&quot;&gt;shard1-2&lt;/span&gt;" style="shape=cylinder3;whiteSpace=wrap;html=1;boundedLbl=1;backgroundOutline=1;size=15;" vertex="1" parent="47UurQtOCFy3TFF9FcCs-70">
          <mxGeometry x="170" y="110" width="80" height="90" as="geometry" />
        </mxCell>
        <mxCell id="47UurQtOCFy3TFF9FcCs-74" value="&lt;span style=&quot;caret-color: rgba(0, 0, 0, 0.85); color: rgba(0, 0, 0, 0.85); font-family: Menlo, &amp;quot;Ubuntu Mono&amp;quot;, consolas, source-code-pro, monospace; font-size: 14.4px; white-space-collapse: break-spaces; background-color: rgb(245, 245, 245);&quot;&gt;shard1-3&lt;/span&gt;" style="shape=cylinder3;whiteSpace=wrap;html=1;boundedLbl=1;backgroundOutline=1;size=15;" vertex="1" parent="47UurQtOCFy3TFF9FcCs-70">
          <mxGeometry x="10" y="110" width="80" height="90" as="geometry" />
        </mxCell>
        <mxCell id="47UurQtOCFy3TFF9FcCs-75" style="edgeStyle=orthogonalEdgeStyle;rounded=0;orthogonalLoop=1;jettySize=auto;html=1;exitX=1;exitY=0.5;exitDx=0;exitDy=0;exitPerimeter=0;entryX=0;entryY=0.5;entryDx=0;entryDy=0;entryPerimeter=0;startArrow=classic;startFill=1;" edge="1" parent="47UurQtOCFy3TFF9FcCs-70" source="47UurQtOCFy3TFF9FcCs-74" target="47UurQtOCFy3TFF9FcCs-73">
          <mxGeometry relative="1" as="geometry" />
        </mxCell>
        <mxCell id="47UurQtOCFy3TFF9FcCs-76" style="edgeStyle=orthogonalEdgeStyle;rounded=0;orthogonalLoop=1;jettySize=auto;html=1;exitX=0.5;exitY=0;exitDx=0;exitDy=0;exitPerimeter=0;entryX=0;entryY=0.5;entryDx=0;entryDy=0;entryPerimeter=0;startArrow=classic;startFill=1;" edge="1" parent="47UurQtOCFy3TFF9FcCs-70" source="47UurQtOCFy3TFF9FcCs-74" target="47UurQtOCFy3TFF9FcCs-72">
          <mxGeometry relative="1" as="geometry" />
        </mxCell>
        <mxCell id="47UurQtOCFy3TFF9FcCs-77" style="edgeStyle=orthogonalEdgeStyle;rounded=0;orthogonalLoop=1;jettySize=auto;html=1;exitX=1;exitY=0.5;exitDx=0;exitDy=0;exitPerimeter=0;entryX=0.5;entryY=0;entryDx=0;entryDy=0;entryPerimeter=0;startArrow=classic;startFill=1;" edge="1" parent="47UurQtOCFy3TFF9FcCs-70" source="47UurQtOCFy3TFF9FcCs-72" target="47UurQtOCFy3TFF9FcCs-73">
          <mxGeometry relative="1" as="geometry" />
        </mxCell>
        <mxCell id="47UurQtOCFy3TFF9FcCs-78" value="" style="group" vertex="1" connectable="0" parent="47UurQtOCFy3TFF9FcCs-68">
          <mxGeometry x="310" y="20" width="260" height="230" as="geometry" />
        </mxCell>
        <mxCell id="47UurQtOCFy3TFF9FcCs-79" value="" style="rounded=1;whiteSpace=wrap;html=1;fillColor=none;strokeColor=default;" vertex="1" parent="47UurQtOCFy3TFF9FcCs-78">
          <mxGeometry width="260" height="230.00000000000003" as="geometry" />
        </mxCell>
        <mxCell id="47UurQtOCFy3TFF9FcCs-80" value="&lt;span style=&quot;caret-color: rgba(0, 0, 0, 0.85); color: rgba(0, 0, 0, 0.85); font-family: Menlo, &amp;quot;Ubuntu Mono&amp;quot;, consolas, source-code-pro, monospace; font-size: 14.4px; white-space-collapse: break-spaces; background-color: rgb(245, 245, 245);&quot;&gt;shard2-1&lt;/span&gt;" style="shape=cylinder3;whiteSpace=wrap;html=1;boundedLbl=1;backgroundOutline=1;size=15;" vertex="1" parent="47UurQtOCFy3TFF9FcCs-78">
          <mxGeometry x="80" y="10" width="80" height="90" as="geometry" />
        </mxCell>
        <mxCell id="47UurQtOCFy3TFF9FcCs-81" value="&lt;span style=&quot;caret-color: rgba(0, 0, 0, 0.85); color: rgba(0, 0, 0, 0.85); font-family: Menlo, &amp;quot;Ubuntu Mono&amp;quot;, consolas, source-code-pro, monospace; font-size: 14.4px; white-space-collapse: break-spaces; background-color: rgb(245, 245, 245);&quot;&gt;shard2-2&lt;/span&gt;" style="shape=cylinder3;whiteSpace=wrap;html=1;boundedLbl=1;backgroundOutline=1;size=15;" vertex="1" parent="47UurQtOCFy3TFF9FcCs-78">
          <mxGeometry x="170" y="110" width="80" height="90" as="geometry" />
        </mxCell>
        <mxCell id="47UurQtOCFy3TFF9FcCs-82" value="&lt;span style=&quot;caret-color: rgba(0, 0, 0, 0.85); color: rgba(0, 0, 0, 0.85); font-family: Menlo, &amp;quot;Ubuntu Mono&amp;quot;, consolas, source-code-pro, monospace; font-size: 14.4px; white-space-collapse: break-spaces; background-color: rgb(245, 245, 245);&quot;&gt;shard2-3&lt;/span&gt;" style="shape=cylinder3;whiteSpace=wrap;html=1;boundedLbl=1;backgroundOutline=1;size=15;" vertex="1" parent="47UurQtOCFy3TFF9FcCs-78">
          <mxGeometry x="10" y="110" width="80" height="90" as="geometry" />
        </mxCell>
        <mxCell id="47UurQtOCFy3TFF9FcCs-83" style="edgeStyle=orthogonalEdgeStyle;rounded=0;orthogonalLoop=1;jettySize=auto;html=1;exitX=1;exitY=0.5;exitDx=0;exitDy=0;exitPerimeter=0;entryX=0;entryY=0.5;entryDx=0;entryDy=0;entryPerimeter=0;startArrow=classic;startFill=1;" edge="1" parent="47UurQtOCFy3TFF9FcCs-78" source="47UurQtOCFy3TFF9FcCs-82" target="47UurQtOCFy3TFF9FcCs-81">
          <mxGeometry relative="1" as="geometry" />
        </mxCell>
        <mxCell id="47UurQtOCFy3TFF9FcCs-84" style="edgeStyle=orthogonalEdgeStyle;rounded=0;orthogonalLoop=1;jettySize=auto;html=1;exitX=0.5;exitY=0;exitDx=0;exitDy=0;exitPerimeter=0;entryX=0;entryY=0.5;entryDx=0;entryDy=0;entryPerimeter=0;startArrow=classic;startFill=1;" edge="1" parent="47UurQtOCFy3TFF9FcCs-78" source="47UurQtOCFy3TFF9FcCs-82" target="47UurQtOCFy3TFF9FcCs-80">
          <mxGeometry relative="1" as="geometry" />
        </mxCell>
        <mxCell id="47UurQtOCFy3TFF9FcCs-85" style="edgeStyle=orthogonalEdgeStyle;rounded=0;orthogonalLoop=1;jettySize=auto;html=1;exitX=1;exitY=0.5;exitDx=0;exitDy=0;exitPerimeter=0;entryX=0.5;entryY=0;entryDx=0;entryDy=0;entryPerimeter=0;startArrow=classic;startFill=1;" edge="1" parent="47UurQtOCFy3TFF9FcCs-78" source="47UurQtOCFy3TFF9FcCs-80" target="47UurQtOCFy3TFF9FcCs-81">
          <mxGeometry relative="1" as="geometry" />
        </mxCell>
        <mxCell id="47UurQtOCFy3TFF9FcCs-86" style="edgeStyle=orthogonalEdgeStyle;rounded=0;orthogonalLoop=1;jettySize=auto;html=1;exitX=0.5;exitY=1;exitDx=0;exitDy=0;entryX=0.475;entryY=0.011;entryDx=0;entryDy=0;entryPerimeter=0;" edge="1" parent="1" source="47UurQtOCFy3TFF9FcCs-67" target="47UurQtOCFy3TFF9FcCs-69">
          <mxGeometry relative="1" as="geometry" />
        </mxCell>
        <mxCell id="47UurQtOCFy3TFF9FcCs-96" value="Схема 4" style="text;html=1;align=center;verticalAlign=middle;whiteSpace=wrap;rounded=0;fontSize=16;fontStyle=1" vertex="1" parent="1">
          <mxGeometry x="2520" y="70" width="80" height="30" as="geometry" />
        </mxCell>
        <mxCell id="47UurQtOCFy3TFF9FcCs-120" value="" style="group" vertex="1" connectable="0" parent="1">
          <mxGeometry x="2520" y="320" width="820" height="640" as="geometry" />
        </mxCell>
        <mxCell id="47UurQtOCFy3TFF9FcCs-119" value="" style="rounded=0;whiteSpace=wrap;html=1;fillColor=none;dashed=1;strokeWidth=2;" vertex="1" parent="47UurQtOCFy3TFF9FcCs-120">
          <mxGeometry width="820" height="640" as="geometry" />
        </mxCell>
        <mxCell id="47UurQtOCFy3TFF9FcCs-90" style="edgeStyle=orthogonalEdgeStyle;rounded=0;orthogonalLoop=1;jettySize=auto;html=1;exitX=0.5;exitY=0;exitDx=0;exitDy=0;entryX=0;entryY=0.5;entryDx=0;entryDy=0;" edge="1" parent="47UurQtOCFy3TFF9FcCs-120" source="47UurQtOCFy3TFF9FcCs-92" target="47UurQtOCFy3TFF9FcCs-97">
          <mxGeometry relative="1" as="geometry" />
        </mxCell>
        <mxCell id="47UurQtOCFy3TFF9FcCs-91" style="edgeStyle=orthogonalEdgeStyle;rounded=0;orthogonalLoop=1;jettySize=auto;html=1;exitX=0.5;exitY=1;exitDx=0;exitDy=0;entryX=0;entryY=0.5;entryDx=0;entryDy=0;" edge="1" parent="47UurQtOCFy3TFF9FcCs-120" source="47UurQtOCFy3TFF9FcCs-92" target="47UurQtOCFy3TFF9FcCs-99">
          <mxGeometry relative="1" as="geometry" />
        </mxCell>
        <mxCell id="47UurQtOCFy3TFF9FcCs-92" value="&lt;span style=&quot;caret-color: rgba(0, 0, 0, 0.85); color: rgba(0, 0, 0, 0.85); font-family: Menlo, &amp;quot;Ubuntu Mono&amp;quot;, consolas, source-code-pro, monospace; font-size: 14.4px; white-space-collapse: break-spaces; background-color: rgb(245, 245, 245);&quot;&gt;configSrv&lt;/span&gt;" style="rounded=1;whiteSpace=wrap;html=1;" vertex="1" parent="47UurQtOCFy3TFF9FcCs-120">
          <mxGeometry x="20" y="297" width="120" height="60" as="geometry" />
        </mxCell>
        <mxCell id="47UurQtOCFy3TFF9FcCs-93" style="edgeStyle=orthogonalEdgeStyle;rounded=0;orthogonalLoop=1;jettySize=auto;html=1;exitX=0.5;exitY=1;exitDx=0;exitDy=0;startArrow=classic;startFill=1;" edge="1" parent="47UurQtOCFy3TFF9FcCs-120" source="47UurQtOCFy3TFF9FcCs-95" target="47UurQtOCFy3TFF9FcCs-97">
          <mxGeometry relative="1" as="geometry" />
        </mxCell>
        <mxCell id="47UurQtOCFy3TFF9FcCs-183" style="edgeStyle=orthogonalEdgeStyle;rounded=0;orthogonalLoop=1;jettySize=auto;html=1;exitX=0;exitY=0.5;exitDx=0;exitDy=0;" edge="1" parent="47UurQtOCFy3TFF9FcCs-120" source="47UurQtOCFy3TFF9FcCs-95" target="47UurQtOCFy3TFF9FcCs-182">
          <mxGeometry relative="1" as="geometry" />
        </mxCell>
        <mxCell id="47UurQtOCFy3TFF9FcCs-95" value="pymongo-api" style="rounded=1;whiteSpace=wrap;html=1;" vertex="1" parent="47UurQtOCFy3TFF9FcCs-120">
          <mxGeometry x="410" y="51" width="120" height="60" as="geometry" />
        </mxCell>
        <mxCell id="47UurQtOCFy3TFF9FcCs-97" value="router" style="rounded=1;whiteSpace=wrap;html=1;" vertex="1" parent="47UurQtOCFy3TFF9FcCs-120">
          <mxGeometry x="410" y="177" width="120" height="60" as="geometry" />
        </mxCell>
        <mxCell id="47UurQtOCFy3TFF9FcCs-98" value="" style="group" vertex="1" connectable="0" parent="47UurQtOCFy3TFF9FcCs-120">
          <mxGeometry x="190" y="357" width="590" height="270" as="geometry" />
        </mxCell>
        <mxCell id="47UurQtOCFy3TFF9FcCs-99" value="" style="rounded=0;whiteSpace=wrap;html=1;fillColor=none;dashed=1;strokeWidth=2;" vertex="1" parent="47UurQtOCFy3TFF9FcCs-98">
          <mxGeometry width="590" height="270" as="geometry" />
        </mxCell>
        <mxCell id="47UurQtOCFy3TFF9FcCs-100" value="" style="group" vertex="1" connectable="0" parent="47UurQtOCFy3TFF9FcCs-98">
          <mxGeometry x="20" y="20" width="260" height="230" as="geometry" />
        </mxCell>
        <mxCell id="47UurQtOCFy3TFF9FcCs-101" value="" style="rounded=1;whiteSpace=wrap;html=1;fillColor=none;strokeColor=default;" vertex="1" parent="47UurQtOCFy3TFF9FcCs-100">
          <mxGeometry width="260" height="230.00000000000003" as="geometry" />
        </mxCell>
        <mxCell id="47UurQtOCFy3TFF9FcCs-102" value="&lt;span style=&quot;caret-color: rgba(0, 0, 0, 0.85); color: rgba(0, 0, 0, 0.85); font-family: Menlo, &amp;quot;Ubuntu Mono&amp;quot;, consolas, source-code-pro, monospace; font-size: 14.4px; white-space-collapse: break-spaces; background-color: rgb(245, 245, 245);&quot;&gt;shard1-1&lt;/span&gt;" style="shape=cylinder3;whiteSpace=wrap;html=1;boundedLbl=1;backgroundOutline=1;size=15;" vertex="1" parent="47UurQtOCFy3TFF9FcCs-100">
          <mxGeometry x="80" y="10" width="80" height="90" as="geometry" />
        </mxCell>
        <mxCell id="47UurQtOCFy3TFF9FcCs-103" value="&lt;span style=&quot;caret-color: rgba(0, 0, 0, 0.85); color: rgba(0, 0, 0, 0.85); font-family: Menlo, &amp;quot;Ubuntu Mono&amp;quot;, consolas, source-code-pro, monospace; font-size: 14.4px; white-space-collapse: break-spaces; background-color: rgb(245, 245, 245);&quot;&gt;shard1-2&lt;/span&gt;" style="shape=cylinder3;whiteSpace=wrap;html=1;boundedLbl=1;backgroundOutline=1;size=15;" vertex="1" parent="47UurQtOCFy3TFF9FcCs-100">
          <mxGeometry x="170" y="110" width="80" height="90" as="geometry" />
        </mxCell>
        <mxCell id="47UurQtOCFy3TFF9FcCs-104" value="&lt;span style=&quot;caret-color: rgba(0, 0, 0, 0.85); color: rgba(0, 0, 0, 0.85); font-family: Menlo, &amp;quot;Ubuntu Mono&amp;quot;, consolas, source-code-pro, monospace; font-size: 14.4px; white-space-collapse: break-spaces; background-color: rgb(245, 245, 245);&quot;&gt;shard1-3&lt;/span&gt;" style="shape=cylinder3;whiteSpace=wrap;html=1;boundedLbl=1;backgroundOutline=1;size=15;" vertex="1" parent="47UurQtOCFy3TFF9FcCs-100">
          <mxGeometry x="10" y="110" width="80" height="90" as="geometry" />
        </mxCell>
        <mxCell id="47UurQtOCFy3TFF9FcCs-105" style="edgeStyle=orthogonalEdgeStyle;rounded=0;orthogonalLoop=1;jettySize=auto;html=1;exitX=1;exitY=0.5;exitDx=0;exitDy=0;exitPerimeter=0;entryX=0;entryY=0.5;entryDx=0;entryDy=0;entryPerimeter=0;startArrow=classic;startFill=1;" edge="1" parent="47UurQtOCFy3TFF9FcCs-100" source="47UurQtOCFy3TFF9FcCs-104" target="47UurQtOCFy3TFF9FcCs-103">
          <mxGeometry relative="1" as="geometry" />
        </mxCell>
        <mxCell id="47UurQtOCFy3TFF9FcCs-106" style="edgeStyle=orthogonalEdgeStyle;rounded=0;orthogonalLoop=1;jettySize=auto;html=1;exitX=0.5;exitY=0;exitDx=0;exitDy=0;exitPerimeter=0;entryX=0;entryY=0.5;entryDx=0;entryDy=0;entryPerimeter=0;startArrow=classic;startFill=1;" edge="1" parent="47UurQtOCFy3TFF9FcCs-100" source="47UurQtOCFy3TFF9FcCs-104" target="47UurQtOCFy3TFF9FcCs-102">
          <mxGeometry relative="1" as="geometry" />
        </mxCell>
        <mxCell id="47UurQtOCFy3TFF9FcCs-107" style="edgeStyle=orthogonalEdgeStyle;rounded=0;orthogonalLoop=1;jettySize=auto;html=1;exitX=1;exitY=0.5;exitDx=0;exitDy=0;exitPerimeter=0;entryX=0.5;entryY=0;entryDx=0;entryDy=0;entryPerimeter=0;startArrow=classic;startFill=1;" edge="1" parent="47UurQtOCFy3TFF9FcCs-100" source="47UurQtOCFy3TFF9FcCs-102" target="47UurQtOCFy3TFF9FcCs-103">
          <mxGeometry relative="1" as="geometry" />
        </mxCell>
        <mxCell id="47UurQtOCFy3TFF9FcCs-108" value="" style="group" vertex="1" connectable="0" parent="47UurQtOCFy3TFF9FcCs-98">
          <mxGeometry x="310" y="20" width="260" height="230" as="geometry" />
        </mxCell>
        <mxCell id="47UurQtOCFy3TFF9FcCs-109" value="" style="rounded=1;whiteSpace=wrap;html=1;fillColor=none;strokeColor=default;" vertex="1" parent="47UurQtOCFy3TFF9FcCs-108">
          <mxGeometry width="260" height="230.00000000000003" as="geometry" />
        </mxCell>
        <mxCell id="47UurQtOCFy3TFF9FcCs-110" value="&lt;span style=&quot;caret-color: rgba(0, 0, 0, 0.85); color: rgba(0, 0, 0, 0.85); font-family: Menlo, &amp;quot;Ubuntu Mono&amp;quot;, consolas, source-code-pro, monospace; font-size: 14.4px; white-space-collapse: break-spaces; background-color: rgb(245, 245, 245);&quot;&gt;shard2-1&lt;/span&gt;" style="shape=cylinder3;whiteSpace=wrap;html=1;boundedLbl=1;backgroundOutline=1;size=15;" vertex="1" parent="47UurQtOCFy3TFF9FcCs-108">
          <mxGeometry x="80" y="10" width="80" height="90" as="geometry" />
        </mxCell>
        <mxCell id="47UurQtOCFy3TFF9FcCs-111" value="&lt;span style=&quot;caret-color: rgba(0, 0, 0, 0.85); color: rgba(0, 0, 0, 0.85); font-family: Menlo, &amp;quot;Ubuntu Mono&amp;quot;, consolas, source-code-pro, monospace; font-size: 14.4px; white-space-collapse: break-spaces; background-color: rgb(245, 245, 245);&quot;&gt;shard2-2&lt;/span&gt;" style="shape=cylinder3;whiteSpace=wrap;html=1;boundedLbl=1;backgroundOutline=1;size=15;" vertex="1" parent="47UurQtOCFy3TFF9FcCs-108">
          <mxGeometry x="170" y="110" width="80" height="90" as="geometry" />
        </mxCell>
        <mxCell id="47UurQtOCFy3TFF9FcCs-112" value="&lt;span style=&quot;caret-color: rgba(0, 0, 0, 0.85); color: rgba(0, 0, 0, 0.85); font-family: Menlo, &amp;quot;Ubuntu Mono&amp;quot;, consolas, source-code-pro, monospace; font-size: 14.4px; white-space-collapse: break-spaces; background-color: rgb(245, 245, 245);&quot;&gt;shard2-3&lt;/span&gt;" style="shape=cylinder3;whiteSpace=wrap;html=1;boundedLbl=1;backgroundOutline=1;size=15;" vertex="1" parent="47UurQtOCFy3TFF9FcCs-108">
          <mxGeometry x="10" y="110" width="80" height="90" as="geometry" />
        </mxCell>
        <mxCell id="47UurQtOCFy3TFF9FcCs-113" style="edgeStyle=orthogonalEdgeStyle;rounded=0;orthogonalLoop=1;jettySize=auto;html=1;exitX=1;exitY=0.5;exitDx=0;exitDy=0;exitPerimeter=0;entryX=0;entryY=0.5;entryDx=0;entryDy=0;entryPerimeter=0;startArrow=classic;startFill=1;" edge="1" parent="47UurQtOCFy3TFF9FcCs-108" source="47UurQtOCFy3TFF9FcCs-112" target="47UurQtOCFy3TFF9FcCs-111">
          <mxGeometry relative="1" as="geometry" />
        </mxCell>
        <mxCell id="47UurQtOCFy3TFF9FcCs-114" style="edgeStyle=orthogonalEdgeStyle;rounded=0;orthogonalLoop=1;jettySize=auto;html=1;exitX=0.5;exitY=0;exitDx=0;exitDy=0;exitPerimeter=0;entryX=0;entryY=0.5;entryDx=0;entryDy=0;entryPerimeter=0;startArrow=classic;startFill=1;" edge="1" parent="47UurQtOCFy3TFF9FcCs-108" source="47UurQtOCFy3TFF9FcCs-112" target="47UurQtOCFy3TFF9FcCs-110">
          <mxGeometry relative="1" as="geometry" />
        </mxCell>
        <mxCell id="47UurQtOCFy3TFF9FcCs-115" style="edgeStyle=orthogonalEdgeStyle;rounded=0;orthogonalLoop=1;jettySize=auto;html=1;exitX=1;exitY=0.5;exitDx=0;exitDy=0;exitPerimeter=0;entryX=0.5;entryY=0;entryDx=0;entryDy=0;entryPerimeter=0;startArrow=classic;startFill=1;" edge="1" parent="47UurQtOCFy3TFF9FcCs-108" source="47UurQtOCFy3TFF9FcCs-110" target="47UurQtOCFy3TFF9FcCs-111">
          <mxGeometry relative="1" as="geometry" />
        </mxCell>
        <mxCell id="47UurQtOCFy3TFF9FcCs-116" style="edgeStyle=orthogonalEdgeStyle;rounded=0;orthogonalLoop=1;jettySize=auto;html=1;exitX=0.5;exitY=1;exitDx=0;exitDy=0;entryX=0.475;entryY=0.011;entryDx=0;entryDy=0;entryPerimeter=0;startArrow=classic;startFill=1;" edge="1" parent="47UurQtOCFy3TFF9FcCs-120" source="47UurQtOCFy3TFF9FcCs-97" target="47UurQtOCFy3TFF9FcCs-99">
          <mxGeometry relative="1" as="geometry" />
        </mxCell>
        <mxCell id="47UurQtOCFy3TFF9FcCs-182" value="redis" style="shape=cylinder3;whiteSpace=wrap;html=1;boundedLbl=1;backgroundOutline=1;size=15;" vertex="1" parent="47UurQtOCFy3TFF9FcCs-120">
          <mxGeometry x="190" y="36" width="80" height="90" as="geometry" />
        </mxCell>
        <mxCell id="47UurQtOCFy3TFF9FcCs-225" value="ЦОД 1" style="text;html=1;align=center;verticalAlign=middle;whiteSpace=wrap;rounded=0;fontSize=14;fontStyle=1" vertex="1" parent="47UurQtOCFy3TFF9FcCs-120">
          <mxGeometry x="10" y="6" width="60" height="30" as="geometry" />
        </mxCell>
        <mxCell id="47UurQtOCFy3TFF9FcCs-219" style="edgeStyle=orthogonalEdgeStyle;rounded=0;orthogonalLoop=1;jettySize=auto;html=1;exitX=0.5;exitY=1;exitDx=0;exitDy=0;entryX=0.5;entryY=0;entryDx=0;entryDy=0;startArrow=classic;startFill=1;" edge="1" parent="1" source="47UurQtOCFy3TFF9FcCs-151" target="47UurQtOCFy3TFF9FcCs-213">
          <mxGeometry relative="1" as="geometry" />
        </mxCell>
        <mxCell id="47UurQtOCFy3TFF9FcCs-151" value="Web" style="rounded=1;whiteSpace=wrap;html=1;" vertex="1" parent="1">
          <mxGeometry x="3330" y="64" width="120" height="60" as="geometry" />
        </mxCell>
        <mxCell id="47UurQtOCFy3TFF9FcCs-184" value="" style="group" vertex="1" connectable="0" parent="1">
          <mxGeometry x="3380" y="320" width="820" height="640" as="geometry" />
        </mxCell>
        <mxCell id="47UurQtOCFy3TFF9FcCs-185" value="" style="rounded=0;whiteSpace=wrap;html=1;fillColor=none;dashed=1;strokeWidth=2;" vertex="1" parent="47UurQtOCFy3TFF9FcCs-184">
          <mxGeometry width="820" height="640" as="geometry" />
        </mxCell>
        <mxCell id="47UurQtOCFy3TFF9FcCs-186" style="edgeStyle=orthogonalEdgeStyle;rounded=0;orthogonalLoop=1;jettySize=auto;html=1;exitX=0.5;exitY=0;exitDx=0;exitDy=0;entryX=0;entryY=0.5;entryDx=0;entryDy=0;" edge="1" parent="47UurQtOCFy3TFF9FcCs-184" source="47UurQtOCFy3TFF9FcCs-188" target="47UurQtOCFy3TFF9FcCs-192">
          <mxGeometry relative="1" as="geometry" />
        </mxCell>
        <mxCell id="47UurQtOCFy3TFF9FcCs-187" style="edgeStyle=orthogonalEdgeStyle;rounded=0;orthogonalLoop=1;jettySize=auto;html=1;exitX=0.5;exitY=1;exitDx=0;exitDy=0;entryX=0;entryY=0.5;entryDx=0;entryDy=0;" edge="1" parent="47UurQtOCFy3TFF9FcCs-184" source="47UurQtOCFy3TFF9FcCs-188" target="47UurQtOCFy3TFF9FcCs-194">
          <mxGeometry relative="1" as="geometry" />
        </mxCell>
        <mxCell id="47UurQtOCFy3TFF9FcCs-188" value="&lt;span style=&quot;caret-color: rgba(0, 0, 0, 0.85); color: rgba(0, 0, 0, 0.85); font-family: Menlo, &amp;quot;Ubuntu Mono&amp;quot;, consolas, source-code-pro, monospace; font-size: 14.4px; white-space-collapse: break-spaces; background-color: rgb(245, 245, 245);&quot;&gt;configSrv&lt;/span&gt;" style="rounded=1;whiteSpace=wrap;html=1;" vertex="1" parent="47UurQtOCFy3TFF9FcCs-184">
          <mxGeometry x="20" y="297" width="120" height="60" as="geometry" />
        </mxCell>
        <mxCell id="47UurQtOCFy3TFF9FcCs-189" style="edgeStyle=orthogonalEdgeStyle;rounded=0;orthogonalLoop=1;jettySize=auto;html=1;exitX=0.5;exitY=1;exitDx=0;exitDy=0;startArrow=classic;startFill=1;" edge="1" parent="47UurQtOCFy3TFF9FcCs-184" source="47UurQtOCFy3TFF9FcCs-191" target="47UurQtOCFy3TFF9FcCs-192">
          <mxGeometry relative="1" as="geometry" />
        </mxCell>
        <mxCell id="47UurQtOCFy3TFF9FcCs-191" value="pymongo-api" style="rounded=1;whiteSpace=wrap;html=1;" vertex="1" parent="47UurQtOCFy3TFF9FcCs-184">
          <mxGeometry x="410" y="51" width="120" height="60" as="geometry" />
        </mxCell>
        <mxCell id="47UurQtOCFy3TFF9FcCs-192" value="router" style="rounded=1;whiteSpace=wrap;html=1;" vertex="1" parent="47UurQtOCFy3TFF9FcCs-184">
          <mxGeometry x="410" y="177" width="120" height="60" as="geometry" />
        </mxCell>
        <mxCell id="47UurQtOCFy3TFF9FcCs-193" value="" style="group" vertex="1" connectable="0" parent="47UurQtOCFy3TFF9FcCs-184">
          <mxGeometry x="190" y="357" width="590" height="270" as="geometry" />
        </mxCell>
        <mxCell id="47UurQtOCFy3TFF9FcCs-194" value="" style="rounded=0;whiteSpace=wrap;html=1;fillColor=none;dashed=1;strokeWidth=2;" vertex="1" parent="47UurQtOCFy3TFF9FcCs-193">
          <mxGeometry width="590" height="270" as="geometry" />
        </mxCell>
        <mxCell id="47UurQtOCFy3TFF9FcCs-195" value="" style="group" vertex="1" connectable="0" parent="47UurQtOCFy3TFF9FcCs-193">
          <mxGeometry x="20" y="20" width="260" height="230" as="geometry" />
        </mxCell>
        <mxCell id="47UurQtOCFy3TFF9FcCs-196" value="" style="rounded=1;whiteSpace=wrap;html=1;fillColor=none;strokeColor=default;" vertex="1" parent="47UurQtOCFy3TFF9FcCs-195">
          <mxGeometry width="260" height="230.00000000000003" as="geometry" />
        </mxCell>
        <mxCell id="47UurQtOCFy3TFF9FcCs-197" value="&lt;span style=&quot;caret-color: rgba(0, 0, 0, 0.85); color: rgba(0, 0, 0, 0.85); font-family: Menlo, &amp;quot;Ubuntu Mono&amp;quot;, consolas, source-code-pro, monospace; font-size: 14.4px; white-space-collapse: break-spaces; background-color: rgb(245, 245, 245);&quot;&gt;shard1-1&lt;/span&gt;" style="shape=cylinder3;whiteSpace=wrap;html=1;boundedLbl=1;backgroundOutline=1;size=15;" vertex="1" parent="47UurQtOCFy3TFF9FcCs-195">
          <mxGeometry x="80" y="10" width="80" height="90" as="geometry" />
        </mxCell>
        <mxCell id="47UurQtOCFy3TFF9FcCs-198" value="&lt;span style=&quot;caret-color: rgba(0, 0, 0, 0.85); color: rgba(0, 0, 0, 0.85); font-family: Menlo, &amp;quot;Ubuntu Mono&amp;quot;, consolas, source-code-pro, monospace; font-size: 14.4px; white-space-collapse: break-spaces; background-color: rgb(245, 245, 245);&quot;&gt;shard1-2&lt;/span&gt;" style="shape=cylinder3;whiteSpace=wrap;html=1;boundedLbl=1;backgroundOutline=1;size=15;" vertex="1" parent="47UurQtOCFy3TFF9FcCs-195">
          <mxGeometry x="170" y="110" width="80" height="90" as="geometry" />
        </mxCell>
        <mxCell id="47UurQtOCFy3TFF9FcCs-199" value="&lt;span style=&quot;caret-color: rgba(0, 0, 0, 0.85); color: rgba(0, 0, 0, 0.85); font-family: Menlo, &amp;quot;Ubuntu Mono&amp;quot;, consolas, source-code-pro, monospace; font-size: 14.4px; white-space-collapse: break-spaces; background-color: rgb(245, 245, 245);&quot;&gt;shard1-3&lt;/span&gt;" style="shape=cylinder3;whiteSpace=wrap;html=1;boundedLbl=1;backgroundOutline=1;size=15;" vertex="1" parent="47UurQtOCFy3TFF9FcCs-195">
          <mxGeometry x="10" y="110" width="80" height="90" as="geometry" />
        </mxCell>
        <mxCell id="47UurQtOCFy3TFF9FcCs-200" style="edgeStyle=orthogonalEdgeStyle;rounded=0;orthogonalLoop=1;jettySize=auto;html=1;exitX=1;exitY=0.5;exitDx=0;exitDy=0;exitPerimeter=0;entryX=0;entryY=0.5;entryDx=0;entryDy=0;entryPerimeter=0;startArrow=classic;startFill=1;" edge="1" parent="47UurQtOCFy3TFF9FcCs-195" source="47UurQtOCFy3TFF9FcCs-199" target="47UurQtOCFy3TFF9FcCs-198">
          <mxGeometry relative="1" as="geometry" />
        </mxCell>
        <mxCell id="47UurQtOCFy3TFF9FcCs-201" style="edgeStyle=orthogonalEdgeStyle;rounded=0;orthogonalLoop=1;jettySize=auto;html=1;exitX=0.5;exitY=0;exitDx=0;exitDy=0;exitPerimeter=0;entryX=0;entryY=0.5;entryDx=0;entryDy=0;entryPerimeter=0;startArrow=classic;startFill=1;" edge="1" parent="47UurQtOCFy3TFF9FcCs-195" source="47UurQtOCFy3TFF9FcCs-199" target="47UurQtOCFy3TFF9FcCs-197">
          <mxGeometry relative="1" as="geometry" />
        </mxCell>
        <mxCell id="47UurQtOCFy3TFF9FcCs-202" style="edgeStyle=orthogonalEdgeStyle;rounded=0;orthogonalLoop=1;jettySize=auto;html=1;exitX=1;exitY=0.5;exitDx=0;exitDy=0;exitPerimeter=0;entryX=0.5;entryY=0;entryDx=0;entryDy=0;entryPerimeter=0;startArrow=classic;startFill=1;" edge="1" parent="47UurQtOCFy3TFF9FcCs-195" source="47UurQtOCFy3TFF9FcCs-197" target="47UurQtOCFy3TFF9FcCs-198">
          <mxGeometry relative="1" as="geometry" />
        </mxCell>
        <mxCell id="47UurQtOCFy3TFF9FcCs-203" value="" style="group" vertex="1" connectable="0" parent="47UurQtOCFy3TFF9FcCs-193">
          <mxGeometry x="310" y="20" width="260" height="230" as="geometry" />
        </mxCell>
        <mxCell id="47UurQtOCFy3TFF9FcCs-204" value="" style="rounded=1;whiteSpace=wrap;html=1;fillColor=none;strokeColor=default;" vertex="1" parent="47UurQtOCFy3TFF9FcCs-203">
          <mxGeometry width="260" height="230.00000000000003" as="geometry" />
        </mxCell>
        <mxCell id="47UurQtOCFy3TFF9FcCs-205" value="&lt;span style=&quot;caret-color: rgba(0, 0, 0, 0.85); color: rgba(0, 0, 0, 0.85); font-family: Menlo, &amp;quot;Ubuntu Mono&amp;quot;, consolas, source-code-pro, monospace; font-size: 14.4px; white-space-collapse: break-spaces; background-color: rgb(245, 245, 245);&quot;&gt;shard2-1&lt;/span&gt;" style="shape=cylinder3;whiteSpace=wrap;html=1;boundedLbl=1;backgroundOutline=1;size=15;" vertex="1" parent="47UurQtOCFy3TFF9FcCs-203">
          <mxGeometry x="80" y="10" width="80" height="90" as="geometry" />
        </mxCell>
        <mxCell id="47UurQtOCFy3TFF9FcCs-206" value="&lt;span style=&quot;caret-color: rgba(0, 0, 0, 0.85); color: rgba(0, 0, 0, 0.85); font-family: Menlo, &amp;quot;Ubuntu Mono&amp;quot;, consolas, source-code-pro, monospace; font-size: 14.4px; white-space-collapse: break-spaces; background-color: rgb(245, 245, 245);&quot;&gt;shard2-2&lt;/span&gt;" style="shape=cylinder3;whiteSpace=wrap;html=1;boundedLbl=1;backgroundOutline=1;size=15;" vertex="1" parent="47UurQtOCFy3TFF9FcCs-203">
          <mxGeometry x="170" y="110" width="80" height="90" as="geometry" />
        </mxCell>
        <mxCell id="47UurQtOCFy3TFF9FcCs-207" value="&lt;span style=&quot;caret-color: rgba(0, 0, 0, 0.85); color: rgba(0, 0, 0, 0.85); font-family: Menlo, &amp;quot;Ubuntu Mono&amp;quot;, consolas, source-code-pro, monospace; font-size: 14.4px; white-space-collapse: break-spaces; background-color: rgb(245, 245, 245);&quot;&gt;shard2-3&lt;/span&gt;" style="shape=cylinder3;whiteSpace=wrap;html=1;boundedLbl=1;backgroundOutline=1;size=15;" vertex="1" parent="47UurQtOCFy3TFF9FcCs-203">
          <mxGeometry x="10" y="110" width="80" height="90" as="geometry" />
        </mxCell>
        <mxCell id="47UurQtOCFy3TFF9FcCs-208" style="edgeStyle=orthogonalEdgeStyle;rounded=0;orthogonalLoop=1;jettySize=auto;html=1;exitX=1;exitY=0.5;exitDx=0;exitDy=0;exitPerimeter=0;entryX=0;entryY=0.5;entryDx=0;entryDy=0;entryPerimeter=0;startArrow=classic;startFill=1;" edge="1" parent="47UurQtOCFy3TFF9FcCs-203" source="47UurQtOCFy3TFF9FcCs-207" target="47UurQtOCFy3TFF9FcCs-206">
          <mxGeometry relative="1" as="geometry" />
        </mxCell>
        <mxCell id="47UurQtOCFy3TFF9FcCs-209" style="edgeStyle=orthogonalEdgeStyle;rounded=0;orthogonalLoop=1;jettySize=auto;html=1;exitX=0.5;exitY=0;exitDx=0;exitDy=0;exitPerimeter=0;entryX=0;entryY=0.5;entryDx=0;entryDy=0;entryPerimeter=0;startArrow=classic;startFill=1;" edge="1" parent="47UurQtOCFy3TFF9FcCs-203" source="47UurQtOCFy3TFF9FcCs-207" target="47UurQtOCFy3TFF9FcCs-205">
          <mxGeometry relative="1" as="geometry" />
        </mxCell>
        <mxCell id="47UurQtOCFy3TFF9FcCs-210" style="edgeStyle=orthogonalEdgeStyle;rounded=0;orthogonalLoop=1;jettySize=auto;html=1;exitX=1;exitY=0.5;exitDx=0;exitDy=0;exitPerimeter=0;entryX=0.5;entryY=0;entryDx=0;entryDy=0;entryPerimeter=0;startArrow=classic;startFill=1;" edge="1" parent="47UurQtOCFy3TFF9FcCs-203" source="47UurQtOCFy3TFF9FcCs-205" target="47UurQtOCFy3TFF9FcCs-206">
          <mxGeometry relative="1" as="geometry" />
        </mxCell>
        <mxCell id="47UurQtOCFy3TFF9FcCs-211" style="edgeStyle=orthogonalEdgeStyle;rounded=0;orthogonalLoop=1;jettySize=auto;html=1;exitX=0.5;exitY=1;exitDx=0;exitDy=0;entryX=0.475;entryY=0.011;entryDx=0;entryDy=0;entryPerimeter=0;startArrow=classic;startFill=1;" edge="1" parent="47UurQtOCFy3TFF9FcCs-184" source="47UurQtOCFy3TFF9FcCs-192" target="47UurQtOCFy3TFF9FcCs-194">
          <mxGeometry relative="1" as="geometry" />
        </mxCell>
        <mxCell id="47UurQtOCFy3TFF9FcCs-212" value="redis" style="shape=cylinder3;whiteSpace=wrap;html=1;boundedLbl=1;backgroundOutline=1;size=15;" vertex="1" parent="47UurQtOCFy3TFF9FcCs-184">
          <mxGeometry x="660" y="21" width="80" height="90" as="geometry" />
        </mxCell>
        <mxCell id="47UurQtOCFy3TFF9FcCs-217" style="edgeStyle=orthogonalEdgeStyle;rounded=0;orthogonalLoop=1;jettySize=auto;html=1;exitX=1;exitY=0.5;exitDx=0;exitDy=0;entryX=0;entryY=0;entryDx=0;entryDy=60;entryPerimeter=0;" edge="1" parent="47UurQtOCFy3TFF9FcCs-184" source="47UurQtOCFy3TFF9FcCs-191" target="47UurQtOCFy3TFF9FcCs-212">
          <mxGeometry relative="1" as="geometry" />
        </mxCell>
        <mxCell id="47UurQtOCFy3TFF9FcCs-226" value="ЦОД 2" style="text;html=1;align=center;verticalAlign=middle;whiteSpace=wrap;rounded=0;fontSize=14;fontStyle=1" vertex="1" parent="47UurQtOCFy3TFF9FcCs-184">
          <mxGeometry x="10" y="10" width="60" height="30" as="geometry" />
        </mxCell>
        <mxCell id="47UurQtOCFy3TFF9FcCs-215" style="edgeStyle=orthogonalEdgeStyle;rounded=0;orthogonalLoop=1;jettySize=auto;html=1;exitX=0.25;exitY=1;exitDx=0;exitDy=0;" edge="1" parent="1" source="47UurQtOCFy3TFF9FcCs-213" target="47UurQtOCFy3TFF9FcCs-95">
          <mxGeometry relative="1" as="geometry" />
        </mxCell>
        <mxCell id="47UurQtOCFy3TFF9FcCs-216" style="edgeStyle=orthogonalEdgeStyle;rounded=0;orthogonalLoop=1;jettySize=auto;html=1;exitX=0.75;exitY=1;exitDx=0;exitDy=0;entryX=0.5;entryY=0;entryDx=0;entryDy=0;" edge="1" parent="1" source="47UurQtOCFy3TFF9FcCs-213" target="47UurQtOCFy3TFF9FcCs-191">
          <mxGeometry relative="1" as="geometry" />
        </mxCell>
        <mxCell id="47UurQtOCFy3TFF9FcCs-222" style="edgeStyle=orthogonalEdgeStyle;rounded=0;orthogonalLoop=1;jettySize=auto;html=1;exitX=1;exitY=0.5;exitDx=0;exitDy=0;entryX=0.5;entryY=0;entryDx=0;entryDy=0;" edge="1" parent="1" source="47UurQtOCFy3TFF9FcCs-213" target="47UurQtOCFy3TFF9FcCs-214">
          <mxGeometry relative="1" as="geometry" />
        </mxCell>
        <mxCell id="47UurQtOCFy3TFF9FcCs-213" value="APISIX GATEWAY" style="rounded=1;whiteSpace=wrap;html=1;" vertex="1" parent="1">
          <mxGeometry x="3330" y="170" width="120" height="60" as="geometry" />
        </mxCell>
        <mxCell id="47UurQtOCFy3TFF9FcCs-214" value="CONSUL" style="rounded=1;whiteSpace=wrap;html=1;" vertex="1" parent="1">
          <mxGeometry x="3590" y="220" width="120" height="60" as="geometry" />
        </mxCell>
        <mxCell id="47UurQtOCFy3TFF9FcCs-220" style="edgeStyle=orthogonalEdgeStyle;rounded=0;orthogonalLoop=1;jettySize=auto;html=1;exitX=0.75;exitY=0;exitDx=0;exitDy=0;entryX=1;entryY=0.5;entryDx=0;entryDy=0;" edge="1" parent="1" source="47UurQtOCFy3TFF9FcCs-191" target="47UurQtOCFy3TFF9FcCs-214">
          <mxGeometry relative="1" as="geometry" />
        </mxCell>
        <mxCell id="47UurQtOCFy3TFF9FcCs-221" style="edgeStyle=orthogonalEdgeStyle;rounded=0;orthogonalLoop=1;jettySize=auto;html=1;exitX=0.25;exitY=0;exitDx=0;exitDy=0;entryX=0;entryY=0.5;entryDx=0;entryDy=0;" edge="1" parent="1" source="47UurQtOCFy3TFF9FcCs-95" target="47UurQtOCFy3TFF9FcCs-214">
          <mxGeometry relative="1" as="geometry" />
        </mxCell>
        <mxCell id="47UurQtOCFy3TFF9FcCs-224" style="edgeStyle=orthogonalEdgeStyle;rounded=0;orthogonalLoop=1;jettySize=auto;html=1;exitX=1;exitY=0.75;exitDx=0;exitDy=0;entryX=0;entryY=0.75;entryDx=0;entryDy=0;startArrow=classic;startFill=1;" edge="1" parent="1" source="47UurQtOCFy3TFF9FcCs-99" target="47UurQtOCFy3TFF9FcCs-194">
          <mxGeometry relative="1" as="geometry" />
        </mxCell>
        <mxCell id="47UurQtOCFy3TFF9FcCs-227" value="&lt;font face=&quot;Menlo, Ubuntu Mono, consolas, source-code-pro, monospace&quot; color=&quot;rgba(0, 0, 0, 0.85)&quot;&gt;&lt;span style=&quot;font-size: 14.4px; caret-color: rgba(0, 0, 0, 0.85); white-space-collapse: break-spaces; background-color: rgb(245, 245, 245);&quot;&gt;redis&lt;/span&gt;&lt;/font&gt;" style="shape=cylinder3;whiteSpace=wrap;html=1;boundedLbl=1;backgroundOutline=1;size=15;" vertex="1" parent="1">
          <mxGeometry x="1770" y="49" width="80" height="90" as="geometry" />
        </mxCell>
        <mxCell id="47UurQtOCFy3TFF9FcCs-229" value="" style="rounded=1;whiteSpace=wrap;html=1;fillColor=none;arcSize=4;strokeWidth=2;" vertex="1" parent="1">
          <mxGeometry x="4360" y="40" width="1760" height="960" as="geometry" />
        </mxCell>
        <mxCell id="47UurQtOCFy3TFF9FcCs-230" value="Схема 5" style="text;html=1;align=center;verticalAlign=middle;whiteSpace=wrap;rounded=0;fontSize=16;fontStyle=1" vertex="1" parent="1">
          <mxGeometry x="4400" y="70" width="80" height="30" as="geometry" />
        </mxCell>
        <mxCell id="47UurQtOCFy3TFF9FcCs-231" value="" style="group" vertex="1" connectable="0" parent="1">
          <mxGeometry x="4400" y="320" width="820" height="640" as="geometry" />
        </mxCell>
        <mxCell id="47UurQtOCFy3TFF9FcCs-232" value="" style="rounded=0;whiteSpace=wrap;html=1;fillColor=none;dashed=1;strokeWidth=2;" vertex="1" parent="47UurQtOCFy3TFF9FcCs-231">
          <mxGeometry width="820" height="640" as="geometry" />
        </mxCell>
        <mxCell id="47UurQtOCFy3TFF9FcCs-233" style="edgeStyle=orthogonalEdgeStyle;rounded=0;orthogonalLoop=1;jettySize=auto;html=1;exitX=0.5;exitY=0;exitDx=0;exitDy=0;entryX=0;entryY=0.5;entryDx=0;entryDy=0;" edge="1" parent="47UurQtOCFy3TFF9FcCs-231" source="47UurQtOCFy3TFF9FcCs-235" target="47UurQtOCFy3TFF9FcCs-239">
          <mxGeometry relative="1" as="geometry" />
        </mxCell>
        <mxCell id="47UurQtOCFy3TFF9FcCs-234" style="edgeStyle=orthogonalEdgeStyle;rounded=0;orthogonalLoop=1;jettySize=auto;html=1;exitX=0.5;exitY=1;exitDx=0;exitDy=0;entryX=0;entryY=0.5;entryDx=0;entryDy=0;" edge="1" parent="47UurQtOCFy3TFF9FcCs-231" source="47UurQtOCFy3TFF9FcCs-235" target="47UurQtOCFy3TFF9FcCs-241">
          <mxGeometry relative="1" as="geometry" />
        </mxCell>
        <mxCell id="47UurQtOCFy3TFF9FcCs-235" value="&lt;span style=&quot;caret-color: rgba(0, 0, 0, 0.85); color: rgba(0, 0, 0, 0.85); font-family: Menlo, &amp;quot;Ubuntu Mono&amp;quot;, consolas, source-code-pro, monospace; font-size: 14.4px; white-space-collapse: break-spaces; background-color: rgb(245, 245, 245);&quot;&gt;configSrv&lt;/span&gt;" style="rounded=1;whiteSpace=wrap;html=1;" vertex="1" parent="47UurQtOCFy3TFF9FcCs-231">
          <mxGeometry x="20" y="297" width="120" height="60" as="geometry" />
        </mxCell>
        <mxCell id="47UurQtOCFy3TFF9FcCs-236" style="edgeStyle=orthogonalEdgeStyle;rounded=0;orthogonalLoop=1;jettySize=auto;html=1;exitX=0.5;exitY=1;exitDx=0;exitDy=0;startArrow=classic;startFill=1;" edge="1" parent="47UurQtOCFy3TFF9FcCs-231" source="47UurQtOCFy3TFF9FcCs-238" target="47UurQtOCFy3TFF9FcCs-239">
          <mxGeometry relative="1" as="geometry" />
        </mxCell>
        <mxCell id="47UurQtOCFy3TFF9FcCs-237" style="edgeStyle=orthogonalEdgeStyle;rounded=0;orthogonalLoop=1;jettySize=auto;html=1;exitX=0;exitY=0.5;exitDx=0;exitDy=0;" edge="1" parent="47UurQtOCFy3TFF9FcCs-231" source="47UurQtOCFy3TFF9FcCs-238" target="47UurQtOCFy3TFF9FcCs-259">
          <mxGeometry relative="1" as="geometry" />
        </mxCell>
        <mxCell id="47UurQtOCFy3TFF9FcCs-238" value="pymongo-api" style="rounded=1;whiteSpace=wrap;html=1;" vertex="1" parent="47UurQtOCFy3TFF9FcCs-231">
          <mxGeometry x="410" y="51" width="120" height="60" as="geometry" />
        </mxCell>
        <mxCell id="47UurQtOCFy3TFF9FcCs-239" value="router" style="rounded=1;whiteSpace=wrap;html=1;" vertex="1" parent="47UurQtOCFy3TFF9FcCs-231">
          <mxGeometry x="410" y="177" width="120" height="60" as="geometry" />
        </mxCell>
        <mxCell id="47UurQtOCFy3TFF9FcCs-240" value="" style="group" vertex="1" connectable="0" parent="47UurQtOCFy3TFF9FcCs-231">
          <mxGeometry x="190" y="357" width="590" height="270" as="geometry" />
        </mxCell>
        <mxCell id="47UurQtOCFy3TFF9FcCs-241" value="" style="rounded=0;whiteSpace=wrap;html=1;fillColor=none;dashed=1;strokeWidth=2;" vertex="1" parent="47UurQtOCFy3TFF9FcCs-240">
          <mxGeometry width="590" height="270" as="geometry" />
        </mxCell>
        <mxCell id="47UurQtOCFy3TFF9FcCs-242" value="" style="group" vertex="1" connectable="0" parent="47UurQtOCFy3TFF9FcCs-240">
          <mxGeometry x="20" y="20" width="260" height="230" as="geometry" />
        </mxCell>
        <mxCell id="47UurQtOCFy3TFF9FcCs-243" value="" style="rounded=1;whiteSpace=wrap;html=1;fillColor=none;strokeColor=default;" vertex="1" parent="47UurQtOCFy3TFF9FcCs-242">
          <mxGeometry width="260" height="230.00000000000003" as="geometry" />
        </mxCell>
        <mxCell id="47UurQtOCFy3TFF9FcCs-244" value="&lt;span style=&quot;caret-color: rgba(0, 0, 0, 0.85); color: rgba(0, 0, 0, 0.85); font-family: Menlo, &amp;quot;Ubuntu Mono&amp;quot;, consolas, source-code-pro, monospace; font-size: 14.4px; white-space-collapse: break-spaces; background-color: rgb(245, 245, 245);&quot;&gt;shard1-1&lt;/span&gt;" style="shape=cylinder3;whiteSpace=wrap;html=1;boundedLbl=1;backgroundOutline=1;size=15;" vertex="1" parent="47UurQtOCFy3TFF9FcCs-242">
          <mxGeometry x="80" y="10" width="80" height="90" as="geometry" />
        </mxCell>
        <mxCell id="47UurQtOCFy3TFF9FcCs-245" value="&lt;span style=&quot;caret-color: rgba(0, 0, 0, 0.85); color: rgba(0, 0, 0, 0.85); font-family: Menlo, &amp;quot;Ubuntu Mono&amp;quot;, consolas, source-code-pro, monospace; font-size: 14.4px; white-space-collapse: break-spaces; background-color: rgb(245, 245, 245);&quot;&gt;shard1-2&lt;/span&gt;" style="shape=cylinder3;whiteSpace=wrap;html=1;boundedLbl=1;backgroundOutline=1;size=15;" vertex="1" parent="47UurQtOCFy3TFF9FcCs-242">
          <mxGeometry x="170" y="110" width="80" height="90" as="geometry" />
        </mxCell>
        <mxCell id="47UurQtOCFy3TFF9FcCs-246" value="&lt;span style=&quot;caret-color: rgba(0, 0, 0, 0.85); color: rgba(0, 0, 0, 0.85); font-family: Menlo, &amp;quot;Ubuntu Mono&amp;quot;, consolas, source-code-pro, monospace; font-size: 14.4px; white-space-collapse: break-spaces; background-color: rgb(245, 245, 245);&quot;&gt;shard1-3&lt;/span&gt;" style="shape=cylinder3;whiteSpace=wrap;html=1;boundedLbl=1;backgroundOutline=1;size=15;" vertex="1" parent="47UurQtOCFy3TFF9FcCs-242">
          <mxGeometry x="10" y="110" width="80" height="90" as="geometry" />
        </mxCell>
        <mxCell id="47UurQtOCFy3TFF9FcCs-247" style="edgeStyle=orthogonalEdgeStyle;rounded=0;orthogonalLoop=1;jettySize=auto;html=1;exitX=1;exitY=0.5;exitDx=0;exitDy=0;exitPerimeter=0;entryX=0;entryY=0.5;entryDx=0;entryDy=0;entryPerimeter=0;startArrow=classic;startFill=1;" edge="1" parent="47UurQtOCFy3TFF9FcCs-242" source="47UurQtOCFy3TFF9FcCs-246" target="47UurQtOCFy3TFF9FcCs-245">
          <mxGeometry relative="1" as="geometry" />
        </mxCell>
        <mxCell id="47UurQtOCFy3TFF9FcCs-248" style="edgeStyle=orthogonalEdgeStyle;rounded=0;orthogonalLoop=1;jettySize=auto;html=1;exitX=0.5;exitY=0;exitDx=0;exitDy=0;exitPerimeter=0;entryX=0;entryY=0.5;entryDx=0;entryDy=0;entryPerimeter=0;startArrow=classic;startFill=1;" edge="1" parent="47UurQtOCFy3TFF9FcCs-242" source="47UurQtOCFy3TFF9FcCs-246" target="47UurQtOCFy3TFF9FcCs-244">
          <mxGeometry relative="1" as="geometry" />
        </mxCell>
        <mxCell id="47UurQtOCFy3TFF9FcCs-249" style="edgeStyle=orthogonalEdgeStyle;rounded=0;orthogonalLoop=1;jettySize=auto;html=1;exitX=1;exitY=0.5;exitDx=0;exitDy=0;exitPerimeter=0;entryX=0.5;entryY=0;entryDx=0;entryDy=0;entryPerimeter=0;startArrow=classic;startFill=1;" edge="1" parent="47UurQtOCFy3TFF9FcCs-242" source="47UurQtOCFy3TFF9FcCs-244" target="47UurQtOCFy3TFF9FcCs-245">
          <mxGeometry relative="1" as="geometry" />
        </mxCell>
        <mxCell id="47UurQtOCFy3TFF9FcCs-250" value="" style="group" vertex="1" connectable="0" parent="47UurQtOCFy3TFF9FcCs-240">
          <mxGeometry x="310" y="20" width="260" height="230" as="geometry" />
        </mxCell>
        <mxCell id="47UurQtOCFy3TFF9FcCs-251" value="" style="rounded=1;whiteSpace=wrap;html=1;fillColor=none;strokeColor=default;" vertex="1" parent="47UurQtOCFy3TFF9FcCs-250">
          <mxGeometry width="260" height="230.00000000000003" as="geometry" />
        </mxCell>
        <mxCell id="47UurQtOCFy3TFF9FcCs-252" value="&lt;span style=&quot;caret-color: rgba(0, 0, 0, 0.85); color: rgba(0, 0, 0, 0.85); font-family: Menlo, &amp;quot;Ubuntu Mono&amp;quot;, consolas, source-code-pro, monospace; font-size: 14.4px; white-space-collapse: break-spaces; background-color: rgb(245, 245, 245);&quot;&gt;shard2-1&lt;/span&gt;" style="shape=cylinder3;whiteSpace=wrap;html=1;boundedLbl=1;backgroundOutline=1;size=15;" vertex="1" parent="47UurQtOCFy3TFF9FcCs-250">
          <mxGeometry x="80" y="10" width="80" height="90" as="geometry" />
        </mxCell>
        <mxCell id="47UurQtOCFy3TFF9FcCs-253" value="&lt;span style=&quot;caret-color: rgba(0, 0, 0, 0.85); color: rgba(0, 0, 0, 0.85); font-family: Menlo, &amp;quot;Ubuntu Mono&amp;quot;, consolas, source-code-pro, monospace; font-size: 14.4px; white-space-collapse: break-spaces; background-color: rgb(245, 245, 245);&quot;&gt;shard2-2&lt;/span&gt;" style="shape=cylinder3;whiteSpace=wrap;html=1;boundedLbl=1;backgroundOutline=1;size=15;" vertex="1" parent="47UurQtOCFy3TFF9FcCs-250">
          <mxGeometry x="170" y="110" width="80" height="90" as="geometry" />
        </mxCell>
        <mxCell id="47UurQtOCFy3TFF9FcCs-254" value="&lt;span style=&quot;caret-color: rgba(0, 0, 0, 0.85); color: rgba(0, 0, 0, 0.85); font-family: Menlo, &amp;quot;Ubuntu Mono&amp;quot;, consolas, source-code-pro, monospace; font-size: 14.4px; white-space-collapse: break-spaces; background-color: rgb(245, 245, 245);&quot;&gt;shard2-3&lt;/span&gt;" style="shape=cylinder3;whiteSpace=wrap;html=1;boundedLbl=1;backgroundOutline=1;size=15;" vertex="1" parent="47UurQtOCFy3TFF9FcCs-250">
          <mxGeometry x="10" y="110" width="80" height="90" as="geometry" />
        </mxCell>
        <mxCell id="47UurQtOCFy3TFF9FcCs-255" style="edgeStyle=orthogonalEdgeStyle;rounded=0;orthogonalLoop=1;jettySize=auto;html=1;exitX=1;exitY=0.5;exitDx=0;exitDy=0;exitPerimeter=0;entryX=0;entryY=0.5;entryDx=0;entryDy=0;entryPerimeter=0;startArrow=classic;startFill=1;" edge="1" parent="47UurQtOCFy3TFF9FcCs-250" source="47UurQtOCFy3TFF9FcCs-254" target="47UurQtOCFy3TFF9FcCs-253">
          <mxGeometry relative="1" as="geometry" />
        </mxCell>
        <mxCell id="47UurQtOCFy3TFF9FcCs-256" style="edgeStyle=orthogonalEdgeStyle;rounded=0;orthogonalLoop=1;jettySize=auto;html=1;exitX=0.5;exitY=0;exitDx=0;exitDy=0;exitPerimeter=0;entryX=0;entryY=0.5;entryDx=0;entryDy=0;entryPerimeter=0;startArrow=classic;startFill=1;" edge="1" parent="47UurQtOCFy3TFF9FcCs-250" source="47UurQtOCFy3TFF9FcCs-254" target="47UurQtOCFy3TFF9FcCs-252">
          <mxGeometry relative="1" as="geometry" />
        </mxCell>
        <mxCell id="47UurQtOCFy3TFF9FcCs-257" style="edgeStyle=orthogonalEdgeStyle;rounded=0;orthogonalLoop=1;jettySize=auto;html=1;exitX=1;exitY=0.5;exitDx=0;exitDy=0;exitPerimeter=0;entryX=0.5;entryY=0;entryDx=0;entryDy=0;entryPerimeter=0;startArrow=classic;startFill=1;" edge="1" parent="47UurQtOCFy3TFF9FcCs-250" source="47UurQtOCFy3TFF9FcCs-252" target="47UurQtOCFy3TFF9FcCs-253">
          <mxGeometry relative="1" as="geometry" />
        </mxCell>
        <mxCell id="47UurQtOCFy3TFF9FcCs-258" style="edgeStyle=orthogonalEdgeStyle;rounded=0;orthogonalLoop=1;jettySize=auto;html=1;exitX=0.5;exitY=1;exitDx=0;exitDy=0;entryX=0.475;entryY=0.011;entryDx=0;entryDy=0;entryPerimeter=0;startArrow=classic;startFill=1;" edge="1" parent="47UurQtOCFy3TFF9FcCs-231" source="47UurQtOCFy3TFF9FcCs-239" target="47UurQtOCFy3TFF9FcCs-241">
          <mxGeometry relative="1" as="geometry" />
        </mxCell>
        <mxCell id="47UurQtOCFy3TFF9FcCs-259" value="redis" style="shape=cylinder3;whiteSpace=wrap;html=1;boundedLbl=1;backgroundOutline=1;size=15;" vertex="1" parent="47UurQtOCFy3TFF9FcCs-231">
          <mxGeometry x="190" y="36" width="80" height="90" as="geometry" />
        </mxCell>
        <mxCell id="47UurQtOCFy3TFF9FcCs-260" value="ЦОД 1" style="text;html=1;align=center;verticalAlign=middle;whiteSpace=wrap;rounded=0;fontSize=14;fontStyle=1" vertex="1" parent="47UurQtOCFy3TFF9FcCs-231">
          <mxGeometry x="10" y="6" width="60" height="30" as="geometry" />
        </mxCell>
        <mxCell id="47UurQtOCFy3TFF9FcCs-261" style="edgeStyle=orthogonalEdgeStyle;rounded=0;orthogonalLoop=1;jettySize=auto;html=1;exitX=0.5;exitY=1;exitDx=0;exitDy=0;entryX=0.5;entryY=0;entryDx=0;entryDy=0;startArrow=classic;startFill=1;" edge="1" parent="1" source="47UurQtOCFy3TFF9FcCs-262" target="47UurQtOCFy3TFF9FcCs-296">
          <mxGeometry relative="1" as="geometry" />
        </mxCell>
        <mxCell id="47UurQtOCFy3TFF9FcCs-262" value="Web" style="rounded=1;whiteSpace=wrap;html=1;" vertex="1" parent="1">
          <mxGeometry x="5210" y="64" width="120" height="60" as="geometry" />
        </mxCell>
        <mxCell id="47UurQtOCFy3TFF9FcCs-263" value="" style="group" vertex="1" connectable="0" parent="1">
          <mxGeometry x="5260" y="320" width="820" height="640" as="geometry" />
        </mxCell>
        <mxCell id="47UurQtOCFy3TFF9FcCs-264" value="" style="rounded=0;whiteSpace=wrap;html=1;fillColor=none;dashed=1;strokeWidth=2;" vertex="1" parent="47UurQtOCFy3TFF9FcCs-263">
          <mxGeometry width="820" height="640" as="geometry" />
        </mxCell>
        <mxCell id="47UurQtOCFy3TFF9FcCs-265" style="edgeStyle=orthogonalEdgeStyle;rounded=0;orthogonalLoop=1;jettySize=auto;html=1;exitX=0.5;exitY=0;exitDx=0;exitDy=0;entryX=0;entryY=0.5;entryDx=0;entryDy=0;" edge="1" parent="47UurQtOCFy3TFF9FcCs-263" source="47UurQtOCFy3TFF9FcCs-267" target="47UurQtOCFy3TFF9FcCs-270">
          <mxGeometry relative="1" as="geometry" />
        </mxCell>
        <mxCell id="47UurQtOCFy3TFF9FcCs-266" style="edgeStyle=orthogonalEdgeStyle;rounded=0;orthogonalLoop=1;jettySize=auto;html=1;exitX=0.5;exitY=1;exitDx=0;exitDy=0;entryX=0;entryY=0.5;entryDx=0;entryDy=0;" edge="1" parent="47UurQtOCFy3TFF9FcCs-263" source="47UurQtOCFy3TFF9FcCs-267" target="47UurQtOCFy3TFF9FcCs-272">
          <mxGeometry relative="1" as="geometry" />
        </mxCell>
        <mxCell id="47UurQtOCFy3TFF9FcCs-267" value="&lt;span style=&quot;caret-color: rgba(0, 0, 0, 0.85); color: rgba(0, 0, 0, 0.85); font-family: Menlo, &amp;quot;Ubuntu Mono&amp;quot;, consolas, source-code-pro, monospace; font-size: 14.4px; white-space-collapse: break-spaces; background-color: rgb(245, 245, 245);&quot;&gt;configSrv&lt;/span&gt;" style="rounded=1;whiteSpace=wrap;html=1;" vertex="1" parent="47UurQtOCFy3TFF9FcCs-263">
          <mxGeometry x="20" y="297" width="120" height="60" as="geometry" />
        </mxCell>
        <mxCell id="47UurQtOCFy3TFF9FcCs-268" style="edgeStyle=orthogonalEdgeStyle;rounded=0;orthogonalLoop=1;jettySize=auto;html=1;exitX=0.5;exitY=1;exitDx=0;exitDy=0;startArrow=classic;startFill=1;" edge="1" parent="47UurQtOCFy3TFF9FcCs-263" source="47UurQtOCFy3TFF9FcCs-269" target="47UurQtOCFy3TFF9FcCs-270">
          <mxGeometry relative="1" as="geometry" />
        </mxCell>
        <mxCell id="47UurQtOCFy3TFF9FcCs-269" value="pymongo-api" style="rounded=1;whiteSpace=wrap;html=1;" vertex="1" parent="47UurQtOCFy3TFF9FcCs-263">
          <mxGeometry x="410" y="51" width="120" height="60" as="geometry" />
        </mxCell>
        <mxCell id="47UurQtOCFy3TFF9FcCs-270" value="router" style="rounded=1;whiteSpace=wrap;html=1;" vertex="1" parent="47UurQtOCFy3TFF9FcCs-263">
          <mxGeometry x="410" y="177" width="120" height="60" as="geometry" />
        </mxCell>
        <mxCell id="47UurQtOCFy3TFF9FcCs-271" value="" style="group" vertex="1" connectable="0" parent="47UurQtOCFy3TFF9FcCs-263">
          <mxGeometry x="190" y="357" width="590" height="270" as="geometry" />
        </mxCell>
        <mxCell id="47UurQtOCFy3TFF9FcCs-272" value="" style="rounded=0;whiteSpace=wrap;html=1;fillColor=none;dashed=1;strokeWidth=2;" vertex="1" parent="47UurQtOCFy3TFF9FcCs-271">
          <mxGeometry width="590" height="270" as="geometry" />
        </mxCell>
        <mxCell id="47UurQtOCFy3TFF9FcCs-273" value="" style="group" vertex="1" connectable="0" parent="47UurQtOCFy3TFF9FcCs-271">
          <mxGeometry x="20" y="20" width="260" height="230" as="geometry" />
        </mxCell>
        <mxCell id="47UurQtOCFy3TFF9FcCs-274" value="" style="rounded=1;whiteSpace=wrap;html=1;fillColor=none;strokeColor=default;" vertex="1" parent="47UurQtOCFy3TFF9FcCs-273">
          <mxGeometry width="260" height="230.00000000000003" as="geometry" />
        </mxCell>
        <mxCell id="47UurQtOCFy3TFF9FcCs-275" value="&lt;span style=&quot;caret-color: rgba(0, 0, 0, 0.85); color: rgba(0, 0, 0, 0.85); font-family: Menlo, &amp;quot;Ubuntu Mono&amp;quot;, consolas, source-code-pro, monospace; font-size: 14.4px; white-space-collapse: break-spaces; background-color: rgb(245, 245, 245);&quot;&gt;shard1-1&lt;/span&gt;" style="shape=cylinder3;whiteSpace=wrap;html=1;boundedLbl=1;backgroundOutline=1;size=15;" vertex="1" parent="47UurQtOCFy3TFF9FcCs-273">
          <mxGeometry x="80" y="10" width="80" height="90" as="geometry" />
        </mxCell>
        <mxCell id="47UurQtOCFy3TFF9FcCs-276" value="&lt;span style=&quot;caret-color: rgba(0, 0, 0, 0.85); color: rgba(0, 0, 0, 0.85); font-family: Menlo, &amp;quot;Ubuntu Mono&amp;quot;, consolas, source-code-pro, monospace; font-size: 14.4px; white-space-collapse: break-spaces; background-color: rgb(245, 245, 245);&quot;&gt;shard1-2&lt;/span&gt;" style="shape=cylinder3;whiteSpace=wrap;html=1;boundedLbl=1;backgroundOutline=1;size=15;" vertex="1" parent="47UurQtOCFy3TFF9FcCs-273">
          <mxGeometry x="170" y="110" width="80" height="90" as="geometry" />
        </mxCell>
        <mxCell id="47UurQtOCFy3TFF9FcCs-277" value="&lt;span style=&quot;caret-color: rgba(0, 0, 0, 0.85); color: rgba(0, 0, 0, 0.85); font-family: Menlo, &amp;quot;Ubuntu Mono&amp;quot;, consolas, source-code-pro, monospace; font-size: 14.4px; white-space-collapse: break-spaces; background-color: rgb(245, 245, 245);&quot;&gt;shard1-3&lt;/span&gt;" style="shape=cylinder3;whiteSpace=wrap;html=1;boundedLbl=1;backgroundOutline=1;size=15;" vertex="1" parent="47UurQtOCFy3TFF9FcCs-273">
          <mxGeometry x="10" y="110" width="80" height="90" as="geometry" />
        </mxCell>
        <mxCell id="47UurQtOCFy3TFF9FcCs-278" style="edgeStyle=orthogonalEdgeStyle;rounded=0;orthogonalLoop=1;jettySize=auto;html=1;exitX=1;exitY=0.5;exitDx=0;exitDy=0;exitPerimeter=0;entryX=0;entryY=0.5;entryDx=0;entryDy=0;entryPerimeter=0;startArrow=classic;startFill=1;" edge="1" parent="47UurQtOCFy3TFF9FcCs-273" source="47UurQtOCFy3TFF9FcCs-277" target="47UurQtOCFy3TFF9FcCs-276">
          <mxGeometry relative="1" as="geometry" />
        </mxCell>
        <mxCell id="47UurQtOCFy3TFF9FcCs-279" style="edgeStyle=orthogonalEdgeStyle;rounded=0;orthogonalLoop=1;jettySize=auto;html=1;exitX=0.5;exitY=0;exitDx=0;exitDy=0;exitPerimeter=0;entryX=0;entryY=0.5;entryDx=0;entryDy=0;entryPerimeter=0;startArrow=classic;startFill=1;" edge="1" parent="47UurQtOCFy3TFF9FcCs-273" source="47UurQtOCFy3TFF9FcCs-277" target="47UurQtOCFy3TFF9FcCs-275">
          <mxGeometry relative="1" as="geometry" />
        </mxCell>
        <mxCell id="47UurQtOCFy3TFF9FcCs-280" style="edgeStyle=orthogonalEdgeStyle;rounded=0;orthogonalLoop=1;jettySize=auto;html=1;exitX=1;exitY=0.5;exitDx=0;exitDy=0;exitPerimeter=0;entryX=0.5;entryY=0;entryDx=0;entryDy=0;entryPerimeter=0;startArrow=classic;startFill=1;" edge="1" parent="47UurQtOCFy3TFF9FcCs-273" source="47UurQtOCFy3TFF9FcCs-275" target="47UurQtOCFy3TFF9FcCs-276">
          <mxGeometry relative="1" as="geometry" />
        </mxCell>
        <mxCell id="47UurQtOCFy3TFF9FcCs-281" value="" style="group" vertex="1" connectable="0" parent="47UurQtOCFy3TFF9FcCs-271">
          <mxGeometry x="310" y="20" width="260" height="230" as="geometry" />
        </mxCell>
        <mxCell id="47UurQtOCFy3TFF9FcCs-282" value="" style="rounded=1;whiteSpace=wrap;html=1;fillColor=none;strokeColor=default;" vertex="1" parent="47UurQtOCFy3TFF9FcCs-281">
          <mxGeometry width="260" height="230.00000000000003" as="geometry" />
        </mxCell>
        <mxCell id="47UurQtOCFy3TFF9FcCs-283" value="&lt;span style=&quot;caret-color: rgba(0, 0, 0, 0.85); color: rgba(0, 0, 0, 0.85); font-family: Menlo, &amp;quot;Ubuntu Mono&amp;quot;, consolas, source-code-pro, monospace; font-size: 14.4px; white-space-collapse: break-spaces; background-color: rgb(245, 245, 245);&quot;&gt;shard2-1&lt;/span&gt;" style="shape=cylinder3;whiteSpace=wrap;html=1;boundedLbl=1;backgroundOutline=1;size=15;" vertex="1" parent="47UurQtOCFy3TFF9FcCs-281">
          <mxGeometry x="80" y="10" width="80" height="90" as="geometry" />
        </mxCell>
        <mxCell id="47UurQtOCFy3TFF9FcCs-284" value="&lt;span style=&quot;caret-color: rgba(0, 0, 0, 0.85); color: rgba(0, 0, 0, 0.85); font-family: Menlo, &amp;quot;Ubuntu Mono&amp;quot;, consolas, source-code-pro, monospace; font-size: 14.4px; white-space-collapse: break-spaces; background-color: rgb(245, 245, 245);&quot;&gt;shard2-2&lt;/span&gt;" style="shape=cylinder3;whiteSpace=wrap;html=1;boundedLbl=1;backgroundOutline=1;size=15;" vertex="1" parent="47UurQtOCFy3TFF9FcCs-281">
          <mxGeometry x="170" y="110" width="80" height="90" as="geometry" />
        </mxCell>
        <mxCell id="47UurQtOCFy3TFF9FcCs-285" value="&lt;span style=&quot;caret-color: rgba(0, 0, 0, 0.85); color: rgba(0, 0, 0, 0.85); font-family: Menlo, &amp;quot;Ubuntu Mono&amp;quot;, consolas, source-code-pro, monospace; font-size: 14.4px; white-space-collapse: break-spaces; background-color: rgb(245, 245, 245);&quot;&gt;shard2-3&lt;/span&gt;" style="shape=cylinder3;whiteSpace=wrap;html=1;boundedLbl=1;backgroundOutline=1;size=15;" vertex="1" parent="47UurQtOCFy3TFF9FcCs-281">
          <mxGeometry x="10" y="110" width="80" height="90" as="geometry" />
        </mxCell>
        <mxCell id="47UurQtOCFy3TFF9FcCs-286" style="edgeStyle=orthogonalEdgeStyle;rounded=0;orthogonalLoop=1;jettySize=auto;html=1;exitX=1;exitY=0.5;exitDx=0;exitDy=0;exitPerimeter=0;entryX=0;entryY=0.5;entryDx=0;entryDy=0;entryPerimeter=0;startArrow=classic;startFill=1;" edge="1" parent="47UurQtOCFy3TFF9FcCs-281" source="47UurQtOCFy3TFF9FcCs-285" target="47UurQtOCFy3TFF9FcCs-284">
          <mxGeometry relative="1" as="geometry" />
        </mxCell>
        <mxCell id="47UurQtOCFy3TFF9FcCs-287" style="edgeStyle=orthogonalEdgeStyle;rounded=0;orthogonalLoop=1;jettySize=auto;html=1;exitX=0.5;exitY=0;exitDx=0;exitDy=0;exitPerimeter=0;entryX=0;entryY=0.5;entryDx=0;entryDy=0;entryPerimeter=0;startArrow=classic;startFill=1;" edge="1" parent="47UurQtOCFy3TFF9FcCs-281" source="47UurQtOCFy3TFF9FcCs-285" target="47UurQtOCFy3TFF9FcCs-283">
          <mxGeometry relative="1" as="geometry" />
        </mxCell>
        <mxCell id="47UurQtOCFy3TFF9FcCs-288" style="edgeStyle=orthogonalEdgeStyle;rounded=0;orthogonalLoop=1;jettySize=auto;html=1;exitX=1;exitY=0.5;exitDx=0;exitDy=0;exitPerimeter=0;entryX=0.5;entryY=0;entryDx=0;entryDy=0;entryPerimeter=0;startArrow=classic;startFill=1;" edge="1" parent="47UurQtOCFy3TFF9FcCs-281" source="47UurQtOCFy3TFF9FcCs-283" target="47UurQtOCFy3TFF9FcCs-284">
          <mxGeometry relative="1" as="geometry" />
        </mxCell>
        <mxCell id="47UurQtOCFy3TFF9FcCs-289" style="edgeStyle=orthogonalEdgeStyle;rounded=0;orthogonalLoop=1;jettySize=auto;html=1;exitX=0.5;exitY=1;exitDx=0;exitDy=0;entryX=0.475;entryY=0.011;entryDx=0;entryDy=0;entryPerimeter=0;startArrow=classic;startFill=1;" edge="1" parent="47UurQtOCFy3TFF9FcCs-263" source="47UurQtOCFy3TFF9FcCs-270" target="47UurQtOCFy3TFF9FcCs-272">
          <mxGeometry relative="1" as="geometry" />
        </mxCell>
        <mxCell id="47UurQtOCFy3TFF9FcCs-290" value="redis" style="shape=cylinder3;whiteSpace=wrap;html=1;boundedLbl=1;backgroundOutline=1;size=15;" vertex="1" parent="47UurQtOCFy3TFF9FcCs-263">
          <mxGeometry x="660" y="21" width="80" height="90" as="geometry" />
        </mxCell>
        <mxCell id="47UurQtOCFy3TFF9FcCs-291" style="edgeStyle=orthogonalEdgeStyle;rounded=0;orthogonalLoop=1;jettySize=auto;html=1;exitX=1;exitY=0.5;exitDx=0;exitDy=0;entryX=0;entryY=0;entryDx=0;entryDy=60;entryPerimeter=0;" edge="1" parent="47UurQtOCFy3TFF9FcCs-263" source="47UurQtOCFy3TFF9FcCs-269" target="47UurQtOCFy3TFF9FcCs-290">
          <mxGeometry relative="1" as="geometry" />
        </mxCell>
        <mxCell id="47UurQtOCFy3TFF9FcCs-292" value="ЦОД 2" style="text;html=1;align=center;verticalAlign=middle;whiteSpace=wrap;rounded=0;fontSize=14;fontStyle=1" vertex="1" parent="47UurQtOCFy3TFF9FcCs-263">
          <mxGeometry x="10" y="10" width="60" height="30" as="geometry" />
        </mxCell>
        <mxCell id="47UurQtOCFy3TFF9FcCs-293" style="edgeStyle=orthogonalEdgeStyle;rounded=0;orthogonalLoop=1;jettySize=auto;html=1;exitX=0.25;exitY=1;exitDx=0;exitDy=0;" edge="1" parent="1" source="47UurQtOCFy3TFF9FcCs-296" target="47UurQtOCFy3TFF9FcCs-238">
          <mxGeometry relative="1" as="geometry" />
        </mxCell>
        <mxCell id="47UurQtOCFy3TFF9FcCs-294" style="edgeStyle=orthogonalEdgeStyle;rounded=0;orthogonalLoop=1;jettySize=auto;html=1;exitX=0.75;exitY=1;exitDx=0;exitDy=0;entryX=0.5;entryY=0;entryDx=0;entryDy=0;" edge="1" parent="1" source="47UurQtOCFy3TFF9FcCs-296" target="47UurQtOCFy3TFF9FcCs-269">
          <mxGeometry relative="1" as="geometry" />
        </mxCell>
        <mxCell id="47UurQtOCFy3TFF9FcCs-295" style="edgeStyle=orthogonalEdgeStyle;rounded=0;orthogonalLoop=1;jettySize=auto;html=1;exitX=1;exitY=0.5;exitDx=0;exitDy=0;entryX=0.5;entryY=0;entryDx=0;entryDy=0;" edge="1" parent="1" source="47UurQtOCFy3TFF9FcCs-296" target="47UurQtOCFy3TFF9FcCs-297">
          <mxGeometry relative="1" as="geometry" />
        </mxCell>
        <mxCell id="47UurQtOCFy3TFF9FcCs-296" value="APISIX GATEWAY" style="rounded=1;whiteSpace=wrap;html=1;" vertex="1" parent="1">
          <mxGeometry x="5210" y="170" width="120" height="60" as="geometry" />
        </mxCell>
        <mxCell id="47UurQtOCFy3TFF9FcCs-297" value="CONSUL" style="rounded=1;whiteSpace=wrap;html=1;" vertex="1" parent="1">
          <mxGeometry x="5470" y="220" width="120" height="60" as="geometry" />
        </mxCell>
        <mxCell id="47UurQtOCFy3TFF9FcCs-298" style="edgeStyle=orthogonalEdgeStyle;rounded=0;orthogonalLoop=1;jettySize=auto;html=1;exitX=0.75;exitY=0;exitDx=0;exitDy=0;entryX=1;entryY=0.5;entryDx=0;entryDy=0;" edge="1" parent="1" source="47UurQtOCFy3TFF9FcCs-269" target="47UurQtOCFy3TFF9FcCs-297">
          <mxGeometry relative="1" as="geometry" />
        </mxCell>
        <mxCell id="47UurQtOCFy3TFF9FcCs-299" style="edgeStyle=orthogonalEdgeStyle;rounded=0;orthogonalLoop=1;jettySize=auto;html=1;exitX=0.25;exitY=0;exitDx=0;exitDy=0;entryX=0;entryY=0.5;entryDx=0;entryDy=0;" edge="1" parent="1" source="47UurQtOCFy3TFF9FcCs-238" target="47UurQtOCFy3TFF9FcCs-297">
          <mxGeometry relative="1" as="geometry" />
        </mxCell>
        <mxCell id="47UurQtOCFy3TFF9FcCs-300" style="edgeStyle=orthogonalEdgeStyle;rounded=0;orthogonalLoop=1;jettySize=auto;html=1;exitX=1;exitY=0.75;exitDx=0;exitDy=0;entryX=0;entryY=0.75;entryDx=0;entryDy=0;startArrow=classic;startFill=1;" edge="1" parent="1" source="47UurQtOCFy3TFF9FcCs-241" target="47UurQtOCFy3TFF9FcCs-272">
          <mxGeometry relative="1" as="geometry" />
        </mxCell>
        <mxCell id="47UurQtOCFy3TFF9FcCs-301" value="CDN" style="ellipse;shape=cloud;whiteSpace=wrap;html=1;" vertex="1" parent="1">
          <mxGeometry x="5600" y="60" width="120" height="80" as="geometry" />
        </mxCell>
        <mxCell id="47UurQtOCFy3TFF9FcCs-302" style="edgeStyle=orthogonalEdgeStyle;rounded=0;orthogonalLoop=1;jettySize=auto;html=1;exitX=1;exitY=0.5;exitDx=0;exitDy=0;entryX=0.07;entryY=0.4;entryDx=0;entryDy=0;entryPerimeter=0;startArrow=classic;startFill=1;" edge="1" parent="1" source="47UurQtOCFy3TFF9FcCs-262" target="47UurQtOCFy3TFF9FcCs-301">
          <mxGeometry relative="1" as="geometry" />
        </mxCell>
      </root>
    </mxGraphModel>
  </diagram>
</mxfile>
